<?xml version="1.0" encoding="UTF-8" standalone="no"?>
<!-- Created with Inkscape (http://www.inkscape.org/) -->

<svg
   xmlns:dc="http://purl.org/dc/elements/1.1/"
   xmlns:cc="http://creativecommons.org/ns#"
   xmlns:rdf="http://www.w3.org/1999/02/22-rdf-syntax-ns#"
   xmlns:svg="http://www.w3.org/2000/svg"
   xmlns="http://www.w3.org/2000/svg"
   xmlns:sodipodi="http://sodipodi.sourceforge.net/DTD/sodipodi-0.dtd"
   xmlns:inkscape="http://www.inkscape.org/namespaces/inkscape"
   version="1.1"
   id="svg2"
   xml:space="preserve"
   width="418.66666"
   height="92"
   viewBox="0 0 418.66666 92"
   sodipodi:docname="logo.svg"
   inkscape:version="0.92.5 (2060ec1f9f, 2020-04-08)"><metadata
     id="metadata8"><rdf:RDF><cc:Work
         rdf:about=""><dc:format>image/svg+xml</dc:format><dc:type
           rdf:resource="http://purl.org/dc/dcmitype/StillImage" /><dc:title></dc:title></cc:Work></rdf:RDF></metadata><defs
     id="defs6" /><sodipodi:namedview
     pagecolor="#ffffff"
     bordercolor="#666666"
     borderopacity="1"
     objecttolerance="10"
     gridtolerance="10"
     guidetolerance="10"
     inkscape:pageopacity="0"
     inkscape:pageshadow="2"
     inkscape:window-width="2416"
     inkscape:window-height="1572"
     id="namedview4"
     showgrid="false"
     inkscape:zoom="1.7699045"
     inkscape:cx="74.580295"
     inkscape:cy="46"
     inkscape:window-x="144"
     inkscape:window-y="54"
     inkscape:window-maximized="1"
     inkscape:current-layer="g10" /><g
     id="g10"
     inkscape:groupmode="layer"
     inkscape:label="ink_ext_XXXXXX"
     transform="matrix(1.3333333,0,0,-1.3333333,0,92)"><g
       id="g12"
       transform="scale(0.1)"><path
         d="m 142.391,686.488 c 45.754,0 86.363,-22 111.843,-55.992 C 159.742,604.027 83.5273,533.844 48.7383,443.141 20.4609,468.703 2.69141,505.668 2.69141,546.793 c 0,77.152 62.54299,139.695 139.69959,139.695 z m 128.015,-83.722 c 7.504,-17.137 11.676,-36.067 11.676,-55.973 0,-77.156 -62.543,-139.699 -139.691,-139.699 -23.137,0 -44.9574,5.629 -64.1683,15.586 16.3359,39.871 41.2693,75.586 74.8123,107.133 35.473,33.371 74.602,57.683 117.371,72.953"
         style="fill:#ff0000;fill-opacity:1;fill-rule:evenodd;stroke:none"
         id="path14"
         inkscape:connector-curvature="0" /><path
         d="M 669.07,615.531 H 340.031 C 188.207,604.438 66.7852,483.863 54.332,332.418 V 0.796875 H 227.844 C 210.508,12.1055 193.902,25.2148 178.027,40.1484 112.625,101.668 79.9258,179.012 79.9258,272.188 c 0,93.171 32.6992,170.519 98.1012,232.035 65.399,61.519 143.196,92.277 233.383,92.277 52.555,0 101.383,-10.152 146.477,-30.457 43.238,-19.477 80.301,-45.813 111.183,-79.016 z M 600.203,0.796875 H 669.07 V 57.3438 C 648.781,35.5313 625.828,16.6797 600.203,0.796875 Z M 669.07,64.7695 V 479.602 L 556.543,390.445 c -38.82,44.2 -86.008,66.297 -141.551,66.297 -49.574,0 -91.828,-17.769 -126.773,-53.308 -34.938,-35.536 -52.406,-79.286 -52.406,-131.246 0,-51.961 17.468,-95.715 52.406,-131.25 34.945,-35.54 77.199,-53.3052 126.773,-53.3052 55.543,0 102.731,22.0972 141.551,66.2972 L 669.07,64.7695"
         style="fill:#003399;fill-opacity:1;fill-rule:evenodd;stroke:none"
         id="path16"
         inkscape:connector-curvature="0" /><path
         d="m 925.664,409.012 c 0,-38.856 -25.516,-67.567 -60.871,-67.567 -35.664,0 -60.875,22.067 -60.875,69.293 v 158.27 h 20.598 v -158.27 c 0,-37.691 16.789,-51.59 40.277,-51.59 26.684,0 40.328,21.157 40.328,51.895 v 8.422 c 0,31.297 -35.965,51.285 -35.965,73.605 0,8.422 1.469,15.926 7.555,24.653 l 20.852,-5.832 c -5.786,-7.508 -8.977,-11.008 -8.977,-18.821 0,-22.015 37.078,-38.55 37.078,-70.461 z m 151.626,-1.723 c 0,-43.777 -20.59,-65.844 -61.18,-65.844 -39.969,0 -60.868,29.016 -60.868,63.817 v 10.144 c 0,11.871 6.696,25.211 15.672,37.641 l 14.203,-7.203 c -5.781,-11.313 -8.976,-23.489 -8.976,-30.438 v -11.058 c 0,-28.965 10.144,-45.2 39.969,-45.2 27.85,0 40.33,13.344 40.33,49.004 v 16.793 c 0,57.676 -65.792,70.711 -65.792,126.41 v 17.653 h 19.122 v -17.653 c 0,-45.804 67.52,-64.929 67.52,-126.41 z m 149.9,24.043 c -0.3,-38.855 -10.45,-82.023 -44.94,-89.887 l -1.73,17.703 c 14.21,0 26.07,26.075 26.07,71.325 v 55.039 c 0,41.191 -8.11,65.539 -39.11,65.539 -33.93,0 -41.44,-24.957 -41.44,-66.399 v -54.179 c 0,-44.387 8.12,-71.325 21.16,-71.325 l -0.31,-17.703 c -35.05,6.696 -41.44,52.2 -41.44,89.028 v 53.621 c 0,39.109 10.44,84.914 60.87,84.914 51.59,0 61.18,-39.11 61.18,-83.496 z m 141.78,7.254 c 0,25.519 -13.34,44.34 -40.02,44.34 -14.2,0 -40.58,-0.559 -40.58,-44.641 v -35.66 c 0,-23.742 12.73,-43.477 40.27,-43.477 26.99,0 40.33,16.235 40.33,45.504 z m 20.55,-36.27 c 0,-37.078 -21.46,-60.871 -60.57,-60.871 -35.66,0 -61.18,23.489 -61.18,61.18 v 123.773 c 0,27.239 15.98,39.719 35.97,39.719 16.54,0 32.77,-7.254 47.22,-7.254 11.93,0 20.04,3.754 34.25,10.145 v -15.625 c -13.09,-7.86 -23.49,-11.055 -36.27,-11.055 -14.46,0 -26.64,5.832 -41.14,5.832 -15.37,0.559 -21.46,-9.586 -21.46,-22.93 v -49.257 c 12.48,19.125 29.27,24.351 42.3,24.351 39.17,0 60.88,-29.574 60.88,-60.871 z m 123.82,100.036 c 0,37.086 -13.09,48.699 -37.69,48.699 -24.95,0 -37.38,-8.981 -37.38,-48.699 v -13.645 c 0,-36.523 11.87,-45.199 37.38,-45.199 28.97,0 37.69,14.762 37.69,45.199 z M 1619.11,396.23 c 0,-36.777 -34.49,-54.785 -81.42,-54.785 -44.64,0 -85.22,6.086 -85.22,55.395 l 20.29,-4.059 c 0,-30.433 37.08,-33.633 64.93,-33.633 31.56,0 60.88,9.286 60.88,37.082 v 8.118 c 0,15.371 -5.53,39.16 -27.55,39.16 h -16.54 v 17.656 h 16.54 c 21.46,0 30.69,20.594 30.69,40.024 v 7.558 c 0,26.934 -4.06,42.305 -35.35,42.305 -24.36,0 -32.72,-19.985 -32.72,-46.668 v -15.676 c 0,-36.219 -18.57,-63.762 -57.99,-63.762 -37.38,0 -57.98,24.957 -57.98,63.762 v 13.645 c 0,44.336 22.88,66.656 57.98,66.656 17.96,0 37.09,-6.391 47.84,-32.16 10.4,26.937 27.8,32.16 42.87,32.16 39.16,0 56.56,-22.32 56.56,-59.145 v -7.207 c 0,-18.261 -4.06,-41.492 -40.33,-50.168 33.32,-7.254 36.52,-28.965 36.52,-46.668 z m 227.56,84.106 c 0,40.582 -2.33,70.715 -36.83,70.715 -24.9,0 -37.07,-15.067 -37.07,-44.336 v -91.309 h -20.6 v 91.309 c 0,30.996 -12.18,44.336 -37.39,44.336 -32.16,0 -37.08,-30.133 -37.08,-72.184 v -38.855 c 0,-38.813 11.01,-80.864 40.28,-80.864 v -17.703 c -48.7,0 -61.18,53.368 -61.18,98.008 v 39.414 c 0,44.336 6.95,90.141 58.29,90.141 24.6,0 37.38,-12.172 46.66,-33.024 7.82,20.852 21.46,33.024 48.09,33.024 49.01,0 58.29,-44.945 58.29,-87.809 l -0.3,-41.746 c 0,-42.308 -14.51,-98.008 -60.57,-98.008 v 17.703 c 26.68,0 39.41,41.141 39.41,81.723 z m 263.79,-67.566 c 0,-25.52 -25.77,-71.579 -60.88,-71.579 v 17.957 c 22.32,0 40.33,32.465 40.33,53.317 v 22.93 c 0,39.718 -23.48,49 -37.39,49 -15.67,0 -37.13,-10.754 -37.13,-45.25 V 405.82 h -20.85 v 33.325 c 0,34.496 -21.15,45.25 -36.83,45.25 -18.26,0 -37.38,-9.282 -37.38,-49 v -23.489 c 0,-20.293 15.62,-52.758 40.28,-52.758 v -17.703 c -40.28,0 -61.18,46.973 -61.18,72.188 v 21.762 c 0,65.234 28.71,133.613 156.24,133.613 v -17.957 c -68.69,0 -110.99,-23.18 -128.08,-58.285 l 11.56,3.5 18.56,4.058 c 17.97,0 37.7,-0.609 47.23,-34.496 11.31,33.887 31.91,34.496 47.58,34.496 29.27,0 57.94,-16.844 57.94,-64.929 z m 129.6,24.347 c 0,32.77 -17.4,45.809 -39.97,45.809 -26.38,0 -40.58,-24.352 -40.58,-46.363 v -31.301 c 0,-28.157 16.23,-46.414 41.7,-46.414 25.26,0 38.85,16.84 38.85,46.414 z m 20.6,-35.66 c 0,-36.777 -24.35,-60.012 -60.01,-60.012 -40.02,0 -61.74,27.547 -61.74,63.817 v 31.301 c 0,29.57 21.72,63.761 61.74,63.761 13.64,0 30.99,-4.058 40.89,-25.515 v 49.562 c 0,16.84 -20.29,26.68 -39.16,26.68 -23.75,0 -35.67,-9.84 -35.67,-20.899 v -17.097 h -21.15 v 17.097 c 0,20.899 28.15,38.856 57.12,38.856 30.43,0 58.28,-17.957 58.28,-44.637 z m 156.24,5.832 c 0,-43.777 -20.59,-65.844 -61.18,-65.844 -39.97,0 -60.87,29.016 -60.87,63.817 v 10.144 c 0,11.871 6.7,25.211 15.67,37.641 l 14.21,-7.203 c -5.78,-11.313 -8.98,-23.489 -8.98,-30.438 v -11.058 c 0,-28.965 10.15,-45.2 39.97,-45.2 27.85,0 40.33,13.344 40.33,49.004 v 16.793 c 0,57.676 -65.79,70.711 -65.79,126.41 v 17.653 h 19.12 v -17.653 c 0,-45.804 67.52,-64.929 67.52,-126.41 z m 172.53,2.031 c 0,-39.468 -30.19,-67.875 -69.6,-67.875 -40.58,0 -73.35,31.91 -73.35,79.743 v 56.816 c 0,19.988 3.19,57.676 23.79,91.004 l 13.64,-12.172 c -12.17,-22.02 -16.53,-57.68 -16.53,-78.832 v -56.816 c 0,-29.016 20.29,-62.04 52.45,-62.04 31.3,0 48.7,24.047 48.7,50.172 v 10.703 c 0,22.622 -8.42,39.11 -28.41,39.11 h -22.02 v 17.707 h 22.02 c 20.29,0 28.41,18.562 28.41,27.238 0,24.652 -44.64,23.485 -44.64,64.93 h 17.4 c 0,-29.828 48.14,-30.992 48.14,-64.32 0,-10.149 -0.31,-28.157 -35.66,-36.829 35.35,-8.726 35.66,-32.769 35.66,-46.972 z m 149.54,22.012 c -0.31,-38.855 -10.45,-82.023 -44.95,-89.887 l -1.72,17.703 c 14.2,0 26.08,26.075 26.08,71.325 v 55.039 c 0,41.191 -8.12,65.539 -39.11,65.539 -33.94,0 -41.45,-24.957 -41.45,-66.399 v -54.179 c 0,-44.387 8.11,-71.325 21.15,-71.325 l -0.3,-17.703 c -35.06,6.696 -41.44,52.2 -41.44,89.028 v 53.621 c 0,39.109 10.44,84.914 60.87,84.914 51.59,0 61.17,-39.11 61.17,-83.496 z m 231.62,49.004 c 0,40.582 -2.33,70.715 -36.83,70.715 -24.9,0 -37.08,-15.067 -37.08,-44.336 v -91.309 h -20.59 v 91.309 c 0,30.996 -12.18,44.336 -37.39,44.336 -32.16,0 -37.08,-30.133 -37.08,-72.184 v -38.855 c 0,-38.813 11.01,-80.864 40.27,-80.864 v -17.703 c -48.69,0 -61.17,53.368 -61.17,98.008 v 39.414 c 0,44.336 6.95,90.141 58.28,90.141 24.61,0 37.39,-12.172 46.67,-33.024 7.81,20.852 21.46,33.024 48.09,33.024 49.01,0 58.29,-44.945 58.29,-87.809 l -0.31,-41.746 c 0,-42.308 -14.5,-98.008 -60.56,-98.008 v 17.703 c 26.68,0 39.41,41.141 39.41,81.723 v 39.465"
         style="fill:#003399;fill-opacity:1;fill-rule:nonzero;stroke:none"
         id="path18"
         inkscape:connector-curvature="0" /><path
         d="m 932.75,409.012 c 0,-21.274 -7.09,-39.864 -19.086,-53.176 -12.121,-13.453 -29.141,-21.477 -48.871,-21.477 -20.527,0 -38.066,6.735 -50.32,20.684 -11.149,12.691 -17.641,31.156 -17.641,55.695 v 158.27 7.09 h 7.086 20.598 7.086 v -7.09 -158.27 c 0,-16.125 3.187,-27.175 8.644,-34.172 5.676,-7.265 14.285,-10.332 24.547,-10.332 10.605,0 18.625,4 24.012,10.934 6.125,7.883 9.23,19.652 9.23,33.875 v 8.422 c 0,14.578 -9.789,27.219 -18.758,38.785 -8.949,11.551 -17.207,22.215 -17.207,34.82 0,4.778 0.438,9.36 1.774,14.121 1.328,4.735 3.539,9.493 7.082,14.575 l 2.871,4.105 4.797,-1.34 20.851,-5.836 10.125,-2.832 -6.414,-8.293 -1.23,-1.59 c -4.039,-5.207 -6.254,-8.062 -6.254,-12.91 0,-7.386 6.801,-15.289 14.23,-23.91 10.868,-12.613 22.848,-26.523 22.848,-46.551 z m -29.602,-43.707 c 9.7,10.758 15.43,26.031 15.43,43.707 v 13.597 c 0,14.829 -10.156,26.618 -19.363,37.305 -9.246,10.734 -17.719,20.57 -17.719,33.156 0,6.469 1.481,10.5 4.262,14.785 l -5.832,1.633 c -1.106,-2.093 -1.903,-4.117 -2.465,-6.117 -0.918,-3.273 -1.219,-6.656 -1.219,-10.301 0,-7.832 6.824,-16.636 14.223,-26.183 10.39,-13.41 21.742,-28.063 21.742,-47.422 v -8.422 c 0,-17.355 -4.105,-32.129 -12.215,-42.566 -8.09,-10.411 -19.859,-16.414 -35.199,-16.414 -14.527,0 -26.984,4.687 -35.672,15.812 -7.387,9.457 -11.691,23.395 -11.691,42.863 v 151.184 h -6.426 V 410.738 c 0,-20.906 5.187,-36.246 14.098,-46.39 9.371,-10.668 23.218,-15.813 39.691,-15.813 15.535,0 28.891,6.262 38.355,16.77 z m 181.232,41.984 c 0,-23.715 -5.79,-41.777 -17.27,-54.137 -11.62,-12.511 -28.65,-18.793 -51,-18.793 -21.145,0 -37.61,7.454 -49.102,19.496 -12.469,13.075 -18.852,31.434 -18.852,51.407 v 10.144 c 0,6.524 1.672,13.313 4.492,20.09 3.028,7.274 7.446,14.629 12.536,21.676 l 3.55,4.906 5.364,-2.719 14.203,-7.203 6.332,-3.211 -3.231,-6.312 c -2.535,-4.957 -4.543,-10.153 -5.957,-14.934 -1.449,-4.933 -2.218,-9.277 -2.218,-12.293 v -11.058 c 0,-12.891 2.078,-22.727 7.199,-29.004 4.855,-5.957 13.074,-9.11 25.684,-9.11 11.78,0 20.11,2.586 25.21,8.61 5.45,6.437 8.04,17.215 8.04,33.308 v 16.793 c 0,26.301 -15.77,43.008 -31.4,59.559 -17.27,18.305 -34.397,36.453 -34.397,66.851 v 17.653 7.09 h 7.085 19.122 7.09 v -7.09 -17.653 c 0,-18.476 13.55,-32.972 28.1,-48.531 18.95,-20.261 39.42,-42.14 39.42,-77.879 z m -27.62,-44.504 c 8.94,9.621 13.44,24.469 13.44,44.504 v 17.656 c 0,30.254 -18.44,49.977 -35.53,68.246 -16.56,17.704 -31.99,34.207 -31.99,58.164 v 10.567 h -4.946 v -10.567 c 0,-24.816 15.196,-40.921 30.526,-57.164 17.55,-18.593 35.27,-37.367 35.27,-69.246 v -16.793 c 0,-19.566 -3.67,-33.297 -11.41,-42.441 -8.1,-9.551 -19.94,-13.648 -36.01,-13.648 -17.212,0 -28.985,4.972 -36.649,14.367 -7.402,9.074 -10.406,21.847 -10.406,37.918 v 11.058 c 0,4.239 0.976,10 2.824,16.278 1.031,3.492 2.355,7.199 3.949,10.941 l -2.605,1.324 c -3.004,-4.601 -5.59,-9.277 -7.504,-13.879 -2.129,-5.113 -3.391,-10.086 -3.391,-14.664 v -10.144 c 0,-16.422 5.055,-31.309 14.926,-41.66 8.879,-9.309 21.879,-15.067 38.856,-15.067 18.26,0 31.84,4.762 40.65,14.25 z m 177.49,68.492 c -0.18,-22.5 -3.58,-46.511 -12.85,-65.05 -7.89,-15.778 -19.92,-27.645 -37.6,-31.672 l -7.8,-1.782 -0.79,8.012 -1.72,17.699 -0.75,7.75 h 7.78 c 4.22,0 8.59,5.391 12.25,15.426 4.16,11.375 6.74,27.875 6.74,48.813 v 55.039 c 0,19.531 -1.82,34.867 -7.1,44.922 -4.61,8.773 -12.42,13.531 -24.93,13.531 -13.98,0 -22.4,-4.91 -27.21,-13.895 -5.47,-10.191 -7.14,-25.754 -7.14,-45.418 v -54.179 c 0,-21.493 1.91,-38.606 5.35,-50.227 2.68,-9.043 5.69,-14.012 8.72,-14.012 h 7.18 l -0.13,-7.195 -0.3,-17.703 -0.15,-8.414 -8.24,1.578 c -20.47,3.906 -32.43,18.746 -39.21,37.809 -6.31,17.734 -7.99,39.117 -7.99,58.164 v 53.621 c 0,20.508 2.81,42.906 12.41,60.5 10.1,18.519 27.26,31.504 55.55,31.504 28.74,0 45.95,-11.172 56.05,-28.676 9.6,-16.645 12.21,-38.672 12.21,-61.91 l -0.03,-0.028 -0.3,-54.179 z m -25.48,-58.738 c 8.19,16.367 11.2,38.188 11.36,58.852 l 0.31,54.121 h -0.03 c 0,21.144 -2.2,40.875 -10.27,54.879 -7.59,13.14 -20.98,21.531 -43.82,21.531 -22.13,0 -35.43,-9.922 -43.14,-24.082 -8.23,-15.082 -10.65,-35.149 -10.65,-53.746 v -53.621 c 0,-17.778 1.51,-37.567 7.17,-53.461 4.12,-11.59 10.51,-21.09 20.3,-25.895 l 0.04,2.574 c -6.55,3.168 -11.66,10.903 -15.12,22.571 -3.84,12.933 -5.97,31.429 -5.97,54.211 v 54.179 c 0,21.77 2.09,39.418 8.86,52.063 7.42,13.851 19.73,21.426 39.67,21.426 18.49,0 30.25,-7.422 37.44,-21.118 6.52,-12.41 8.76,-29.851 8.76,-51.511 v -55.039 c 0,-22.594 -2.91,-40.766 -7.62,-53.633 -4.42,-12.074 -10.64,-19.961 -17.91,-23.16 l 0.26,-2.668 c 8.95,4.265 15.57,11.945 20.36,21.527 z m 153.12,66.047 c 0,11.488 -2.98,21.269 -8.93,27.855 -5.32,5.903 -13.31,9.395 -24.01,9.395 -6.2,0 -15.06,-0.113 -21.66,-4.566 -6.62,-4.465 -11.83,-13.825 -11.83,-32.985 v -35.66 c 0,-10.832 2.93,-20.555 9.03,-27.141 5.3,-5.726 13.28,-9.25 24.15,-9.25 11.24,0 19.5,3.153 24.81,9.141 5.63,6.359 8.44,16.246 8.44,29.277 z m 1.59,37.324 c 8.39,-9.285 12.58,-22.371 12.58,-37.324 v -33.934 c 0,-16.523 -4,-29.558 -12.04,-38.632 -8.11,-9.145 -19.89,-13.957 -35.38,-13.957 -15.13,0 -26.57,5.277 -34.5,13.843 -8.69,9.379 -12.86,22.492 -12.86,36.719 v 35.66 c 0,8 0.83,14.77 2.27,20.5 l -4.3,-6.597 v 23.785 49.257 l 0.06,1.813 c 0.28,7.648 2.39,14.5 6.75,19.613 4.59,5.379 11.31,8.614 20.54,8.614 l 0.11,-0.028 1.09,-0.019 v 0.023 c 7.99,0 15.05,-1.543 22.09,-3.086 6.28,-1.371 12.56,-2.746 19.05,-2.746 5.74,0 10.89,0.699 15.97,2.246 4.22,1.289 8.52,3.192 13.21,5.785 v 0.692 c -9.57,-4.071 -16.99,-6.36 -27.16,-6.36 -7.71,0 -15.54,1.793 -23.61,3.637 -7.76,1.777 -15.8,3.617 -23.61,3.617 -8.57,0 -16.13,-2.695 -21.24,-8.336 -4.75,-5.246 -7.64,-13.257 -7.64,-24.297 V 402.625 c 0,-16.602 5.44,-30.016 14.69,-39.273 l -0.01,-0.012 c 9.52,-9.516 23.25,-14.805 39.41,-14.805 17.29,0 30.59,5.02 39.49,13.969 9.18,9.226 13.99,22.906 13.99,39.812 v 37.137 c 0,14.684 -5.33,28.895 -15.43,39 -9,8.996 -21.91,14.785 -38.36,14.785 -6.2,0 -13.37,-1.367 -20.28,-5.343 -0.64,-0.372 -1.29,-0.77 -1.93,-1.188 8.09,3.199 16.34,3.305 22.52,3.305 15.01,0 26.54,-5.246 34.53,-14.102 z m 33.13,-73.594 c 0,-20.711 -6.25,-37.816 -18.15,-49.781 -11.58,-11.64 -28.27,-18.176 -49.51,-18.176 -19.99,0 -37.2,6.782 -49.4,18.969 h -0.02 c -11.87,11.871 -18.84,28.727 -18.84,49.297 v 123.773 c 0,14.782 4.29,25.973 11.35,33.766 7.99,8.824 19.24,13.039 31.7,13.039 9.28,0 18.18,-2.035 26.77,-4 7.22,-1.652 14.21,-3.254 20.45,-3.254 10.22,0 17.74,3.387 30.57,9.16 l 0.77,0.348 9.99,4.504 v -10.953 -15.625 -3.985 l -3.46,-2.078 c -7.01,-4.215 -13.4,-7.203 -19.82,-9.168 -6.59,-2.007 -13.04,-2.914 -20.07,-2.914 -7.96,0 -14.99,1.543 -22.03,3.082 -6.28,1.375 -12.58,2.754 -19.11,2.754 l -0.11,0.028 -1.09,0.019 v -0.023 c -4.69,0 -7.87,-1.364 -9.8,-3.633 -2.15,-2.524 -3.21,-6.387 -3.37,-10.949 v -0.028 -1.258 -30.609 c 2.58,2.149 5.23,3.969 7.91,5.508 9.42,5.422 19.04,7.281 27.3,7.281 20.55,0 36.86,-7.414 48.38,-18.937 12.82,-12.817 19.59,-30.676 19.59,-49.02 z m 109.65,100.036 c 0,16.789 -2.7,27.503 -7.93,33.714 -4.8,5.7 -12.45,7.899 -22.68,7.899 -10.45,0 -18.1,-1.66 -22.7,-6.988 -5.07,-5.864 -7.59,-16.586 -7.59,-34.625 v -13.645 c 0,-16.383 2.35,-26.191 7.24,-31.531 4.54,-4.977 12.25,-6.582 23.05,-6.582 12.11,0 19.76,2.781 24.12,8.418 4.71,6.09 6.49,16.011 6.49,29.695 z m 2.86,42.8 c 7.46,-8.867 11.31,-22.507 11.31,-42.8 v -13.645 c 0,-16.746 -2.59,-29.434 -9.48,-38.332 -7.24,-9.348 -18.44,-13.953 -35.3,-13.953 -14.71,0 -25.7,2.738 -33.46,11.226 -7.42,8.122 -11.01,20.922 -11.01,41.059 v 13.645 c 0,21.675 3.69,35.316 11.08,43.871 7.84,9.086 18.9,11.918 33.39,11.918 14.38,0 25.58,-3.614 33.47,-12.989 z M 1626.2,396.23 c 0,-20.269 -9.16,-35.574 -24.65,-45.996 -15.78,-10.617 -38.15,-15.875 -63.86,-15.875 -23.21,0 -45.49,1.645 -62.45,9.926 -18.15,8.867 -29.85,24.656 -29.85,52.555 v 8.64 l 8.47,-1.695 20.28,-4.055 5.71,-1.144 v -5.805 c 0,-11.504 7.29,-17.968 17.31,-21.586 11.71,-4.222 27.18,-4.961 40.53,-4.961 16.03,0 31.26,2.461 41.51,8.7 7.51,4.578 12.28,11.461 12.28,21.296 v 8.118 c 0,7.797 -1.54,17.953 -6.39,24.84 -2.99,4.253 -7.48,7.234 -14.07,7.234 h -16.54 -7.08 v 7.086 17.656 7.086 h 7.08 16.54 c 7.31,0 12.7,3.172 16.39,7.988 4.94,6.438 7.22,15.782 7.22,24.95 v 7.558 c 0,12.172 -0.81,21.57 -4.7,27.27 -3.55,5.183 -10.59,7.949 -23.57,7.949 -8.83,0 -14.84,-3.242 -18.68,-8.707 -4.96,-7.078 -6.96,-18.016 -6.96,-30.875 v -15.676 c 0,-20.637 -5.67,-38.855 -17.37,-51.723 -10.88,-11.964 -26.71,-19.125 -47.7,-19.125 -20.53,0 -36.65,6.899 -47.81,19.176 -11.31,12.442 -17.25,30.203 -17.25,51.672 v 13.645 c 0,23.433 6.08,41.394 16.86,53.789 v 0.027 c 11.54,13.266 28.14,19.93 48.2,19.93 10.04,0 20.51,-1.844 30.14,-7.391 6.44,-3.703 12.38,-9.004 17.42,-16.418 4.79,7.731 10.35,13.086 16.25,16.75 8.89,5.512 18.27,7.059 26.9,7.059 21.1,0 36.72,-6.075 47.34,-17.18 11.09,-11.598 16.3,-28.336 16.3,-49.055 v -7.207 c 0,-10.133 -1.17,-21.726 -7.58,-32.332 -4.1,-6.773 -10.23,-12.961 -19.37,-17.816 7.68,-4.32 12.88,-9.817 16.41,-15.891 5.8,-9.984 6.74,-20.992 6.74,-30.797 z m -32.51,-34.261 c 11.52,7.75 18.34,19.152 18.34,34.261 v 9.59 c 0,7.895 -0.67,16.602 -4.8,23.711 -2.73,4.711 -7.17,8.961 -14.21,12.192 1.33,-1.356 2.54,-2.828 3.64,-4.395 6.82,-9.691 8.99,-22.984 8.99,-32.98 v -8.118 c 0,-15.48 -7.4,-26.25 -19.09,-33.367 -12.72,-7.75 -30.54,-10.8 -48.87,-10.8 -14.49,0 -31.49,0.867 -45.29,5.843 -13.79,4.977 -24.22,13.75 -26.33,28.992 l -5.98,1.192 c 2.07,-16.004 9.99,-25.516 21.35,-31.07 14.5,-7.079 34.83,-8.485 56.25,-8.485 23,0 42.65,4.449 56,13.434 z m 4.96,105.683 c -0.71,-0.922 -1.45,-1.808 -2.23,-2.656 6.64,3.551 11.02,7.918 13.87,12.637 4.68,7.742 5.54,16.898 5.54,25.023 v 7.207 c 0,17.071 -3.96,30.504 -12.38,39.309 -7.88,8.242 -20.09,12.75 -37.09,12.75 -6.44,0 -13.31,-1.074 -19.48,-4.899 -6.32,-3.918 -12.23,-10.871 -16.8,-22.722 l -6.34,-16.422 -6.78,16.258 c -4.71,11.293 -11.11,18.258 -18.2,22.336 -7.1,4.09 -15.19,5.449 -23.11,5.449 -15.86,0 -28.79,-5.031 -37.51,-15.059 l -0.01,0.012 c -8.55,-9.832 -13.37,-24.672 -13.37,-44.523 v -13.645 c 0,-17.894 4.66,-32.379 13.54,-42.148 8.46,-9.301 21.04,-14.528 37.35,-14.528 16.67,0 29,5.418 37.24,14.477 9.2,10.121 13.66,25.012 13.66,42.199 v 15.676 c 0,15.543 2.75,29.234 9.56,38.961 6.52,9.289 16.3,14.797 30.25,14.797 18.3,0 28.94,-4.926 35.25,-14.157 5.96,-8.714 7.19,-20.48 7.19,-35.238 v -7.558 c 0,-11.969 -3.2,-24.469 -10.15,-33.536 z m 240.94,12.684 c 0,19.59 -0.54,36.574 -4.98,48.031 -3.79,9.762 -11.06,15.598 -24.77,15.598 -10.19,0 -17.63,-2.879 -22.37,-8.551 -5.09,-6.094 -7.62,-15.699 -7.62,-28.699 v -91.309 -7.086 h -7.08 -20.6 -7.09 v 7.086 91.309 c 0,13.75 -2.48,23.328 -7.52,29.199 -4.73,5.504 -12.31,8.051 -22.78,8.051 -12.66,0 -19.96,-5.902 -24.07,-15.918 -4.79,-11.695 -5.92,-28.934 -5.92,-49.18 v -38.855 c 0,-20.375 3.1,-41.547 10.43,-56.254 5.26,-10.551 12.71,-17.524 22.76,-17.524 h 7.09 v -7.086 -17.703 -7.086 h -7.09 c -24.04,0 -40.3,11.465 -50.98,28.575 -13.04,20.898 -17.29,50.234 -17.29,76.519 v 39.414 c 0,22.996 1.87,46.512 10.61,64.742 9.32,19.407 25.83,32.489 54.77,32.489 13.92,0 24.66,-3.563 33.34,-10.164 5.07,-3.856 9.32,-8.684 13.01,-14.379 3.54,5.746 7.84,10.601 13.12,14.465 8.94,6.543 20.38,10.078 35.28,10.078 27.69,0 44.21,-12.805 53.84,-31.707 9.05,-17.786 11.54,-40.825 11.54,-63.192 l -0.03,-0.027 -0.3,-41.719 h 0.02 c 0,-24.973 -4.93,-54.566 -18.07,-75.828 -10.73,-17.371 -26.72,-29.266 -49.58,-29.266 h -7.09 v 7.086 17.703 7.086 h 7.09 c 9.2,0 16.49,7.211 21.81,18.239 7.07,14.656 10.52,35.531 10.52,56.398 z m 8.19,53.121 c 5.34,-13.75 5.98,-32.129 5.98,-53.121 v -39.465 c 0,-22.777 -3.92,-45.879 -11.96,-62.543 -6.44,-13.355 -15.53,-22.816 -27.46,-25.492 v -3.75 c 13.49,2.168 23.41,10.516 30.49,21.961 11.56,18.719 15.91,45.535 15.91,68.406 l 0.03,0.027 0.3,41.719 h -0.03 c 0,20.5 -2.15,41.371 -9.99,56.77 -7.26,14.281 -19.9,23.953 -41.21,23.953 -11.72,0 -20.43,-2.563 -26.92,-7.309 -6.52,-4.773 -11.13,-11.945 -14.55,-21.09 l -6.05,-16.168 -7.02,15.75 -0.49,1.102 c 2.97,-7.375 4.44,-16.488 4.44,-27.492 v -84.223 h 6.43 v 84.223 c 0,16.394 3.62,29.031 10.94,37.785 7.57,9.047 18.62,13.641 33.22,13.641 20.79,0 31.94,-9.235 37.94,-24.684 z m -99.48,11.645 c 1.08,-1.262 2.08,-2.606 3,-4.047 -3.25,5.664 -6.96,10.265 -11.4,13.644 -6.17,4.692 -14.14,7.223 -24.81,7.223 -22.4,0 -35.04,-9.828 -42.03,-24.402 -7.56,-15.754 -9.17,-37.321 -9.17,-58.653 v -39.414 c 0,-24.125 3.71,-50.762 15.13,-69.047 7.07,-11.336 17.34,-19.433 31.87,-21.406 v 3.742 c -12.62,2.5 -21.89,11.735 -28.35,24.703 -8.38,16.821 -11.93,40.285 -11.93,62.567 v 38.855 c 0,21.809 1.34,40.668 7.04,54.547 6.38,15.559 17.64,24.727 37.13,24.727 14.74,0 25.86,-4.125 33.52,-13.039 z M 2117.54,412.77 c 0,-15.649 -8.63,-38.114 -22.81,-54.793 h -0.03 c -11.69,-13.75 -27.23,-23.872 -45.12,-23.872 h -7.08 v 7.086 17.957 7.086 h 7.08 c 7.72,0 15.13,5.625 20.99,13.371 7.52,9.934 12.25,22.961 12.25,32.86 v 22.93 c 0,14.75 -3.44,24.574 -8.31,30.957 -6.43,8.425 -15.51,10.957 -21.99,10.957 -7.14,0 -15.76,-2.762 -21.85,-10.18 -4.85,-5.902 -8.19,-14.895 -8.19,-27.984 v -33.325 -7.09 h -7.09 -20.85 -7.08 v 7.09 33.325 c 0,13.132 -3.32,22.132 -8.13,28.054 -5.99,7.364 -14.51,10.11 -21.62,10.11 -7.45,0 -15,-1.805 -20.47,-7.446 -5.85,-6.043 -9.82,-16.687 -9.82,-34.468 v -23.489 c 0,-9.926 4.28,-23.211 11.84,-33.113 5.57,-7.301 12.88,-12.559 21.35,-12.559 h 7.09 v -7.086 -17.703 -7.086 h -7.09 c -19.62,0 -35.09,9.672 -46.35,22.954 -14.51,17.113 -21.92,40.57 -21.92,56.32 v 21.762 c 0,34.128 7.63,69.218 32.18,96.035 24.39,26.629 65.14,44.668 131.15,44.668 h 7.09 v -7.09 -17.957 -7.086 h -7.09 c -32.14,0 -58.19,-5.184 -78.3,-14.336 -14.33,-6.52 -25.62,-15.07 -33.92,-25.18 l 12.77,2.793 0.77,0.168 h 0.72 c 9.82,0 20.15,-0.183 30.04,-5.371 6.66,-3.488 12.71,-9.066 17.6,-18.066 5.4,9.058 11.79,14.636 18.51,18.097 10.03,5.16 20.04,5.34 28.66,5.34 17.82,0 35.53,-5.711 48.1,-19.789 h 0.03 c 10.28,-11.527 16.89,-28.48 16.89,-52.226 z m -33.59,-45.672 -0.02,0.011 c 12.09,14.211 19.44,32.903 19.44,45.661 v 22.625 c 0,19.91 -5.21,33.746 -13.3,42.816 l 0.02,0.012 c -9.54,10.679 -23.43,15.015 -37.57,15.015 -7.04,0 -15.17,-0.125 -22.18,-3.738 -7.04,-3.625 -13.73,-11.035 -18.7,-25.914 l -7.28,-21.805 -6.23,22.137 c -4.15,14.75 -10.16,22.074 -16.91,25.609 -6.63,3.477 -14.85,3.7 -22.77,3.711 l -17.42,-3.808 -11.4,-3.446 -15.51,-4.699 7.1,14.582 c 9.55,19.61 26.26,35.731 50.28,46.66 20.37,9.266 46.04,14.801 77.08,15.528 v 3.793 c -57.31,-1.2 -92.65,-17.016 -113.65,-39.946 -21.68,-23.679 -28.41,-55.41 -28.41,-86.507 v -21.762 c 0,-13.09 6.27,-32.715 18.53,-47.188 7.34,-8.66 16.87,-15.351 28.47,-17.32 v 3.66 c -10.3,2.133 -18.91,8.789 -25.5,17.426 -9.43,12.359 -14.78,29.102 -14.78,41.695 v 23.489 c 0,21.929 5.6,35.793 13.87,44.32 8.65,8.922 19.81,11.765 30.6,11.765 10.67,0 23.47,-4.175 32.58,-15.371 6.72,-8.254 11.34,-20.222 11.34,-36.964 v -26.239 h 6.67 v 26.239 c 0,16.722 4.68,28.691 11.47,36.953 9.19,11.207 22.1,15.382 32.75,15.382 9.79,0 23.52,-3.824 33.23,-16.546 6.59,-8.637 11.25,-21.313 11.25,-39.539 v -22.93 c 0,-12.703 -5.86,-29.117 -15.14,-41.387 -6.74,-8.922 -15.39,-15.859 -25.19,-18.18 v -3.859 c 10.39,2.242 19.74,9.195 27.28,18.059 z m 149.03,70.019 c 0,13.598 -3.2,23.106 -8.53,29.215 -5.75,6.598 -14.4,9.504 -24.36,9.504 -9.93,0 -17.73,-4.215 -23.24,-10.512 -6.74,-7.703 -10.26,-18.496 -10.26,-28.761 v -31.301 c 0,-12.305 3.43,-22.293 9.51,-29.074 5.89,-6.555 14.5,-10.254 25.11,-10.254 10.36,0 18.21,3.285 23.38,9.453 5.52,6.597 8.39,16.711 8.39,29.875 z m 13.65,9.758 c 0.34,-3.074 0.52,-6.32 0.52,-9.758 v -31.855 c 0,-16.559 -4,-29.746 -11.72,-38.957 -7.94,-9.492 -19.45,-14.547 -34.22,-14.547 -14.81,0 -27.03,5.402 -35.62,14.961 -8.43,9.39 -13.17,22.648 -13.17,38.543 v 31.301 c 0,13.429 4.73,27.699 13.8,38.066 8.07,9.211 19.44,15.383 33.87,15.383 11.25,0 21.49,-2.871 29.59,-9.246 -3.15,3.937 -6.7,6.672 -10.36,8.535 -6.08,3.086 -12.75,3.937 -18.67,3.937 -16.27,0 -29.09,-6.347 -38.17,-15.722 C 2151.66,466.332 2146,450.852 2146,436.563 v -31.301 c 0,-16.922 5.1,-31.61 14.88,-41.715 h 0.03 c 9.08,-9.387 22.43,-15.012 39.74,-15.012 16.02,0 29.39,5.156 38.61,14.379 9.08,9.078 14.31,22.27 14.31,38.543 h 0.03 l 0.31,122.914 h -0.03 c 0,10.5 -5.42,19.438 -13.86,25.906 -9.65,7.383 -23.14,11.645 -37.34,11.645 -13.3,0 -26.35,-4.141 -35.93,-10.66 -8.51,-5.785 -14.11,-13.324 -14.11,-21.11 v -10.007 h 6.99 v 10.007 c 0,8.344 4.5,16.063 13.48,21.325 6.97,4.082 16.77,6.664 29.27,6.664 11.37,0 23.32,-3.239 32.08,-9.207 8.5,-5.786 14.16,-14.082 14.16,-24.563 v -49.562 -32.266 z m 21.12,-45.418 c 0,-20.219 -6.76,-36.859 -18.47,-48.566 -11.88,-11.887 -28.72,-18.532 -48.63,-18.532 -21.4,0 -38.2,7.266 -49.93,19.383 l 0.01,0.016 c -12.43,12.859 -18.9,30.976 -18.9,51.504 v 31.301 c 0,17.679 7.04,36.882 20.52,50.804 11.57,11.953 27.81,20.043 48.3,20.043 7.72,0 16.56,-1.183 25.03,-5.484 3.02,-1.535 5.97,-3.449 8.77,-5.824 v 28.269 c 0,5.238 -3.18,9.629 -7.96,12.879 -6.39,4.352 -15.38,6.715 -24.11,6.715 -9.9,0 -17.25,-1.809 -22.13,-4.664 -4.29,-2.52 -6.45,-5.813 -6.45,-9.149 v -17.097 -7.086 h -7.09 -21.15 -7.09 v 7.086 17.097 c 0,12.805 8.08,24.442 20.36,32.793 11.83,8.043 27.76,13.153 43.85,13.153 17.25,0 33.84,-5.336 45.92,-14.582 11.85,-9.082 19.45,-21.868 19.45,-37.145 h -0.03 l -0.3,-122.914 z m 156.24,5.832 c 0,-23.715 -5.79,-41.777 -17.27,-54.137 -11.62,-12.511 -28.65,-18.793 -51,-18.793 -21.15,0 -37.61,7.454 -49.1,19.496 -12.47,13.075 -18.85,31.434 -18.85,51.407 v 10.144 c 0,6.524 1.67,13.313 4.49,20.09 3.03,7.274 7.44,14.629 12.54,21.676 l 3.54,4.906 5.37,-2.719 14.2,-7.203 6.33,-3.211 -3.23,-6.312 c -2.53,-4.957 -4.54,-10.153 -5.95,-14.934 -1.45,-4.933 -2.22,-9.277 -2.22,-12.293 v -11.058 c 0,-12.891 2.08,-22.727 7.2,-29.004 4.85,-5.957 13.07,-9.11 25.68,-9.11 11.78,0 20.11,2.586 25.21,8.61 5.46,6.433 8.03,17.215 8.03,33.308 v 16.793 c 0,26.301 -15.76,43.008 -31.38,59.559 -17.28,18.305 -34.41,36.453 -34.41,66.851 v 17.653 7.09 h 7.09 19.12 7.09 v -7.09 -17.653 c 0,-18.476 13.56,-32.972 28.11,-48.531 18.95,-20.261 39.41,-42.14 39.41,-77.879 z m -27.62,-44.504 c 8.94,9.621 13.44,24.469 13.44,44.504 v 17.656 c 0,30.254 -18.44,49.977 -35.53,68.246 -16.56,17.704 -31.98,34.207 -31.98,58.164 v 10.567 h -4.95 v -10.567 c 0,-24.816 15.2,-40.921 30.52,-57.164 17.56,-18.593 35.27,-37.367 35.27,-69.246 v -16.793 c 0,-19.566 -3.66,-33.3 -11.41,-42.441 -8.09,-9.551 -19.94,-13.648 -36.01,-13.648 -17.21,0 -28.99,4.972 -36.65,14.367 -7.4,9.074 -10.41,21.847 -10.41,37.918 v 11.058 c 0,4.239 0.98,10 2.83,16.278 1.03,3.492 2.35,7.199 3.95,10.941 l -2.61,1.324 c -3,-4.601 -5.58,-9.277 -7.5,-13.879 -2.13,-5.113 -3.39,-10.086 -3.39,-14.664 v -10.144 c 0,-16.422 5.05,-31.309 14.92,-41.66 8.89,-9.309 21.88,-15.067 38.86,-15.067 18.26,0 31.83,4.762 40.65,14.25 z m 200.14,46.535 c 0,-21.59 -8.26,-40.23 -21.93,-53.562 -13.79,-13.449 -33.03,-21.399 -54.75,-21.399 -22.72,0 -43.24,9.141 -57.9,25.086 -13.96,15.176 -22.54,36.45 -22.54,61.743 v 56.816 c 0,12.133 1.15,30.629 6.46,50.926 3.72,14.269 9.52,29.398 18.41,43.789 l 4.44,7.179 6.27,-5.601 13.65,-12.176 4.22,-3.766 -2.73,-4.925 c -4.97,-8.996 -8.58,-20.578 -11.07,-32.453 -3.24,-15.485 -4.58,-31.438 -4.58,-42.973 v -56.816 c 0,-13.899 5.17,-28.797 14.34,-39.649 7.72,-9.121 18.31,-15.305 31.03,-15.305 12.76,0 22.76,4.567 29.7,11.707 7.79,8.032 11.91,19.418 11.91,31.379 v 10.703 c 0,10.422 -1.89,19.168 -6.04,24.875 -3.26,4.5 -8.27,7.149 -15.28,7.149 h -22.02 -7.08 v 7.086 17.707 7.086 h 7.08 22.02 c 6.3,0 10.98,2.328 14.29,5.5 4.89,4.691 7.03,10.961 7.03,14.652 0,7.039 -7.03,11.887 -14.95,17.356 -13.82,9.531 -29.69,20.484 -29.69,47.574 v 7.09 h 7.09 17.4 7.08 v -7.09 c 0,-10.781 9.83,-17.461 19.94,-24.324 13.9,-9.442 28.2,-19.157 28.2,-39.996 0,-5.961 -0.1,-14.247 -5.73,-22.844 -3.35,-5.102 -8.6,-10.082 -16.92,-14.285 8.58,-4.989 13.94,-11.297 17.31,-17.95 5.25,-10.375 5.34,-20.91 5.34,-28.722 z m -31.78,-43.433 c 10.97,10.707 17.61,25.816 17.61,43.433 v 11.567 c 0,6.386 -0.07,14.984 -3.8,22.355 -2.57,5.082 -7.06,9.926 -14.78,13.66 1.11,-1.14 2.14,-2.375 3.1,-3.695 6.01,-8.277 8.75,-19.887 8.75,-33.184 V 409.32 c 0,-15.523 -5.51,-30.476 -15.95,-41.23 -9.5,-9.781 -22.93,-16.027 -39.83,-16.027 -17.31,0 -31.57,8.218 -41.82,20.339 -11.34,13.414 -17.72,31.746 -17.72,48.786 v 56.816 c 0,12.234 1.43,29.234 4.91,45.851 2.32,11.075 5.57,22.004 9.94,31.325 l -3.09,2.754 c -5.74,-10.809 -9.75,-21.926 -12.53,-32.547 -4.89,-18.727 -5.96,-36.008 -5.96,-47.383 v -56.816 c 0,-21.571 7.15,-39.528 18.78,-52.168 11.98,-13.02 28.8,-20.485 47.49,-20.485 17.94,0 33.71,6.445 44.9,17.352 z m -39.54,100.332 h 5.69 l -5.69,1.402 z m 0,3.531 v -1.633 l 6.65,1.633 z m 39.02,9.484 c -0.39,-0.371 -0.79,-0.742 -1.2,-1.101 8.47,3.367 13.26,7.402 15.92,11.461 3.35,5.109 3.41,10.91 3.41,15.094 0,13.406 -11.13,20.964 -21.95,28.312 -11.42,7.762 -22.59,15.344 -25.48,28.922 h -3.34 c 2.62,-14.84 13.41,-22.277 22.95,-28.859 11.18,-7.719 21.09,-14.555 21.09,-28.985 0,-6.492 -3.46,-17.226 -11.4,-24.844 z m 181.82,-47.957 c -0.18,-22.5 -3.58,-46.511 -12.85,-65.05 -7.89,-15.778 -19.92,-27.645 -37.61,-31.672 l -7.8,-1.782 -0.77,8.012 -1.73,17.699 -0.75,7.75 h 7.78 c 4.22,0 8.58,5.391 12.25,15.426 4.16,11.375 6.74,27.875 6.74,48.813 v 55.039 c 0,19.531 -1.82,34.867 -7.1,44.922 -4.61,8.773 -12.42,13.531 -24.92,13.531 -14,0 -22.41,-4.91 -27.23,-13.895 -5.46,-10.191 -7.13,-25.754 -7.13,-45.418 v -54.179 c 0,-21.493 1.91,-38.606 5.35,-50.227 2.69,-9.043 5.69,-14.012 8.71,-14.012 h 7.18 l -0.12,-7.195 -0.3,-17.703 -0.15,-8.414 -8.24,1.578 c -20.47,3.906 -32.44,18.746 -39.21,37.809 -6.3,17.73 -7.99,39.117 -7.99,58.164 v 53.621 c 0,20.508 2.81,42.906 12.41,60.5 10.1,18.519 27.26,31.504 55.55,31.504 28.74,0 45.95,-11.172 56.05,-28.676 9.6,-16.645 12.21,-38.676 12.21,-61.91 l -0.03,-0.028 -0.3,-54.179 z m -25.48,-58.738 c 8.19,16.367 11.2,38.188 11.36,58.852 l 0.3,54.121 h -0.02 c 0,21.144 -2.19,40.875 -10.28,54.879 -7.58,13.144 -20.97,21.531 -43.81,21.531 -22.13,0 -35.42,-9.922 -43.14,-24.082 -8.23,-15.082 -10.65,-35.149 -10.65,-53.746 v -53.621 c 0,-17.782 1.51,-37.567 7.17,-53.461 4.12,-11.59 10.51,-21.09 20.29,-25.895 l 0.05,2.574 c -6.55,3.172 -11.66,10.903 -15.12,22.571 -3.84,12.933 -5.97,31.429 -5.97,54.211 v 54.179 c 0,21.77 2.08,39.418 8.86,52.063 7.42,13.851 19.73,21.426 39.68,21.426 18.48,0 30.23,-7.422 37.43,-21.118 6.51,-12.41 8.76,-29.851 8.76,-51.511 v -55.039 c 0,-22.594 -2.92,-40.766 -7.62,-53.633 -4.41,-12.074 -10.64,-19.961 -17.91,-23.16 l 0.26,-2.668 c 8.95,4.265 15.57,11.945 20.36,21.527 z m 242.95,107.797 c 0,19.59 -0.53,36.574 -4.98,48.031 -3.79,9.762 -11.05,15.598 -24.76,15.598 -10.19,0 -17.63,-2.879 -22.37,-8.551 -5.1,-6.094 -7.62,-15.699 -7.62,-28.699 v -91.309 -7.086 h -7.09 -20.59 -7.09 v 7.086 91.309 c 0,13.75 -2.48,23.328 -7.52,29.199 -4.74,5.504 -12.31,8.051 -22.78,8.051 -12.66,0 -19.96,-5.902 -24.07,-15.918 -4.8,-11.695 -5.92,-28.934 -5.92,-49.18 v -38.855 c 0,-20.375 3.1,-41.547 10.43,-56.254 5.25,-10.551 12.71,-17.524 22.75,-17.524 h 7.09 v -7.086 -17.703 -7.086 h -7.09 c -24.03,0 -40.29,11.465 -50.97,28.575 -13.04,20.898 -17.29,50.234 -17.29,76.519 v 39.414 c 0,22.996 1.87,46.512 10.61,64.742 9.31,19.407 25.83,32.489 54.76,32.489 13.93,0 24.66,-3.563 33.35,-10.164 5.07,-3.856 9.32,-8.68 13.01,-14.379 3.54,5.746 7.84,10.601 13.12,14.465 8.94,6.543 20.38,10.078 35.28,10.078 27.69,0 44.21,-12.805 53.83,-31.707 9.05,-17.786 11.54,-40.825 11.54,-63.192 l -0.02,-0.027 -0.31,-41.719 h 0.03 c 0,-24.973 -4.94,-54.566 -18.07,-75.828 -10.74,-17.371 -26.72,-29.266 -49.58,-29.266 h -7.09 v 7.086 17.703 7.086 h 7.09 c 9.2,0 16.49,7.211 21.81,18.239 7.06,14.656 10.51,35.531 10.51,56.398 z m 8.2,53.121 c 5.34,-13.75 5.98,-32.129 5.98,-53.121 v -39.465 c 0,-22.777 -3.93,-45.879 -11.96,-62.543 -6.44,-13.355 -15.54,-22.816 -27.46,-25.492 v -3.75 c 13.49,2.168 23.41,10.516 30.48,21.961 11.57,18.719 15.92,45.535 15.92,68.406 l 0.03,0.027 0.3,41.719 h -0.03 c 0,20.5 -2.16,41.371 -9.99,56.77 -7.27,14.281 -19.9,23.953 -41.21,23.953 -11.72,0 -20.43,-2.563 -26.92,-7.309 -6.52,-4.773 -11.13,-11.945 -14.55,-21.09 l -6.06,-16.168 -7.01,15.75 -0.49,1.102 c 2.97,-7.375 4.44,-16.488 4.44,-27.492 v -84.223 h 6.42 v 84.223 c 0,16.394 3.63,29.031 10.95,37.785 7.57,9.047 18.62,13.641 33.22,13.641 20.79,0 31.95,-9.235 37.94,-24.684 z m -99.48,11.645 c 1.08,-1.262 2.08,-2.606 3,-4.047 -3.26,5.664 -6.96,10.265 -11.4,13.644 -6.17,4.692 -14.14,7.223 -24.82,7.223 -22.39,0 -35.03,-9.828 -42.02,-24.402 -7.56,-15.754 -9.18,-37.321 -9.18,-58.653 v -39.414 c 0,-24.125 3.72,-50.762 15.13,-69.047 7.08,-11.336 17.34,-19.433 31.88,-21.406 v 3.742 c -12.63,2.5 -21.89,11.735 -28.35,24.703 -8.38,16.821 -11.93,40.285 -11.93,62.567 v 38.855 c 0,21.809 1.34,40.668 7.04,54.547 6.38,15.559 17.64,24.727 37.13,24.727 14.74,0 25.86,-4.129 33.52,-13.039"
         style="fill:#003399;fill-opacity:1;fill-rule:nonzero;stroke:none"
         id="path20"
         inkscape:connector-curvature="0" /><path
         d="m 901.953,112.703 c 0,-27.2186 -20.816,-46.8124 -48,-46.8124 -27.984,0 -50.586,22.0039 -50.586,54.9964 v 39.183 c 0,13.785 2.203,39.778 16.41,62.762 l 9.411,-8.398 c -8.399,-15.18 -11.407,-39.774 -11.407,-54.364 v -39.183 c 0,-20.012 13.992,-42.7854 36.172,-42.7854 21.586,0 33.586,16.582 33.586,34.6014 v 7.379 c 0,15.606 -5.805,26.973 -19.59,26.973 h -15.183 v 12.211 h 15.183 c 13.992,0 19.59,12.8 19.59,18.785 0,17.004 -30.785,16.199 -30.785,44.781 h 12 c 0,-20.57 33.199,-21.379 33.199,-44.359 0,-6.996 -0.211,-19.418 -24.594,-25.399 24.383,-6.019 24.594,-22.601 24.594,-32.398 z m 103.137,-11.406 c 0,-24.9806 -19.805,-35.4064 -41.985,-35.4064 -24.382,0 -41.98,16.0235 -41.98,37.4024 0,19.973 8.605,29.977 19.383,38.375 l 8.816,-8.781 c -10.429,-9.621 -13.992,-13.817 -13.992,-29.805 0,-15.9922 8.777,-24.9804 27.773,-24.9804 16.793,0 27.778,9.2031 27.778,23.5784 v 86.972 c 0,12.977 -9.199,21.793 -23.996,21.793 -14.973,0 -25.367,-8.394 -25.367,-22.004 0,-4.582 0.808,-8.992 4.796,-15.183 l -10.601,-8.008 c -5.004,6.816 -7.594,14.621 -7.594,23.191 0,20.61 14.801,34.391 37.574,34.391 22.18,0 39.395,-12 39.395,-34.18 z m 94.56,31.59 c 0,17.597 -9.2,30.574 -27.6,30.574 -9.8,0 -27.99,-0.383 -27.99,-30.781 v -24.598 c 0,-16.3711 8.78,-29.9804 27.78,-29.9804 18.61,0 27.81,11.1953 27.81,31.3784 z m 14.17,-25.016 c 0,-25.5702 -14.8,-41.9804 -41.77,-41.9804 -24.6,0 -42.19,16.1992 -42.19,42.1914 v 85.363 c 0,18.785 11.02,27.395 24.8,27.395 11.41,0 22.6,-5.004 32.57,-5.004 8.22,0 13.82,2.586 23.62,6.996 v -10.777 c -9.03,-5.422 -16.2,-7.625 -25.02,-7.625 -9.97,0 -18.37,4.023 -28.37,4.023 -10.6,0.383 -14.8,-6.613 -14.8,-15.812 v -33.969 c 8.61,13.187 20.19,16.793 29.18,16.793 27.01,0 41.98,-20.399 41.98,-41.981 z m 131.16,13.016 c 0,-31.5901 -28.8,-54.9964 -56.19,-54.9964 -27.78,0 -56.57,23.0196 -56.57,54.9964 v 30.191 c 0,32.781 25.61,56.57 51.78,59.16 l -6.4,12.594 h 20.6 l -5.38,-12.594 c 26.37,-2.203 52.16,-25.785 52.16,-59.16 z m -14.38,30.191 c 0,30.367 -14.8,45.375 -37.78,46.985 l 3.18,-66.997 h -15.18 l 3.18,66.997 c -21.37,-2.204 -37.57,-17.004 -37.57,-46.985 v -30.191 c 0,-21.1995 16.58,-42.7854 42.36,-42.7854 24.42,0 41.81,19.8007 41.81,42.7854 z m 178.28,-35.996 c 0,-17.5976 -17.77,-49.3632 -41.98,-49.3632 v 12.3828 c 15.39,0 27.81,22.3904 27.81,36.7694 v 15.813 c 0,27.394 -16.2,33.793 -25.78,33.793 -10.82,0 -25.61,-7.414 -25.61,-31.207 v -22.981 h -14.38 v 22.981 c 0,23.793 -14.59,31.207 -25.4,31.207 -12.59,0 -25.79,-6.399 -25.79,-33.793 v -16.2 c 0,-13.992 10.78,-36.3824 27.78,-36.3824 v -12.211 c -27.78,0 -42.19,32.3985 -42.19,49.7854 v 15.008 c 0,44.992 19.8,92.148 107.75,92.148 v -12.387 c -47.36,0 -76.54,-15.984 -88.33,-40.195 l 7.97,2.414 12.81,2.801 c 12.39,0 26,-0.422 32.57,-23.793 7.8,23.371 22,23.793 32.82,23.793 20.18,0 39.95,-11.617 39.95,-44.781 z m 103.59,12.805 c -0.21,-26.801 -7.21,-56.5745 -31,-61.9964 l -1.19,12.211 c 9.8,0 17.98,17.9804 17.98,49.1874 v 37.961 c 0,28.402 -5.6,45.195 -26.97,45.195 -23.4,0 -28.58,-17.211 -28.58,-45.793 v -37.363 c 0,-30.6093 5.59,-49.1874 14.59,-49.1874 l -0.21,-12.211 c -24.18,4.6211 -28.59,36.0004 -28.59,61.3984 v 36.977 c 0,26.976 7.21,58.566 41.98,58.566 35.58,0 42.2,-26.973 42.2,-57.582 z m 152.91,-15.395 c 0,-26.7967 -17.59,-46.6014 -41.98,-46.6014 -24.59,0 -41.98,15.2188 -41.98,47.7894 v 109.152 h 14.21 V 113.68 c 0,-25.9925 11.57,-35.5784 27.77,-35.5784 18.4,0 27.81,14.5898 27.81,35.7894 v 5.808 c 0,21.586 -24.8,35.367 -24.8,50.762 0,5.805 1.01,10.984 5.21,17.004 l 14.38,-4.027 c -3.99,-5.176 -6.19,-7.59 -6.19,-12.977 0,-15.184 25.57,-26.59 25.57,-48.594 z m 104.57,-1.191 c 0,-30.1916 -14.2,-45.4104 -42.19,-45.4104 -27.57,0 -41.98,20.0117 -41.98,44.0114 v 7 c 0,8.184 4.62,17.383 10.81,25.953 l 9.8,-4.964 c -3.99,-7.805 -6.2,-16.2 -6.2,-20.989 v -7.629 c 0,-19.9761 7,-31.1714 27.57,-31.1714 19.2,0 27.81,9.2031 27.81,33.7964 v 11.579 c 0,39.777 -45.37,48.765 -45.37,87.179 v 12.176 h 13.19 v -12.176 c 0,-31.59 46.56,-44.777 46.56,-87.179 z m 103.38,-10.215 c 0,-22.6016 -17.98,-35.1954 -41.98,-35.1954 -23.79,0 -41.98,14.2032 -41.98,36.2114 v 3.988 c 0,4.582 5,14.797 12.38,17.98 l 7.59,-8.183 c -4.58,-4.41 -5,-8.188 -5.6,-12.387 l -0.17,-2.414 c 0,-14.379 8.19,-22.9844 27.78,-22.9844 16.37,0 27.78,7.5937 27.78,21.7968 v 47.1566 c 0,10.812 -16.2,32.816 -31.77,32.816 -16.02,0 -18.4,-9.41 -18.4,-16.023 0,-8.188 0.98,-7.977 6.58,-13.571 l -5.6,-10.218 c -10.78,6.402 -14,10.601 -14.17,23.789 -0.42,16.023 11.58,27.988 31.59,27.988 14.97,0 24.98,-10.391 32.78,-21.969 v 41.559 h -20.4 v 11.406 h 33.59 z m 106.74,10.215 c 0,-30.1916 -14.21,-45.4104 -42.19,-45.4104 -27.57,0 -41.99,20.0117 -41.99,44.0114 v 7 c 0,8.184 4.62,17.383 10.81,25.953 l 9.8,-4.964 c -3.99,-7.805 -6.19,-16.2 -6.19,-20.989 v -7.629 c 0,-19.9761 6.99,-31.1714 27.57,-31.1714 19.2,0 27.81,9.2031 27.81,33.7964 v 11.579 c 0,39.777 -45.38,48.765 -45.38,87.179 v 12.176 h 13.19 v -12.176 c 0,-31.59 46.57,-44.777 46.57,-87.179 z m 165.93,3.781 c 0,-17.5976 -17.78,-49.3632 -41.98,-49.3632 v 12.3828 c 15.39,0 27.8,22.3904 27.8,36.7694 v 15.813 c 0,27.394 -16.19,33.793 -25.78,33.793 -10.81,0 -25.61,-7.414 -25.61,-31.207 v -22.981 h -14.37 v 22.981 c 0,23.793 -14.59,31.207 -25.4,31.207 -12.6,0 -25.78,-6.399 -25.78,-33.793 v -16.2 c 0,-13.992 10.77,-36.3824 27.77,-36.3824 v -12.211 c -27.77,0 -42.19,32.3985 -42.19,49.7854 v 15.008 c 0,44.992 19.8,92.148 107.75,92.148 v -12.387 c -47.37,0 -76.54,-15.984 -88.33,-40.195 l 7.98,2.414 12.8,2.801 c 12.38,0 25.99,-0.422 32.57,-23.793 7.8,23.371 22,23.793 32.81,23.793 20.19,0 39.96,-11.617 39.96,-44.781 z m 90.39,67.59 c 0,13.187 -6.99,27.773 -26.58,27.773 -22.81,0 -26.8,-24.8 -26.8,-46.984 v -36.383 c 0,-32.3944 5.39,-48.9764 26.8,-48.9764 19.59,0 26.58,16.582 26.58,43.9764 z m 75.75,-49.992 c 0,-30.403 -11.2,-66.7894 -41.98,-66.7894 v 12.211 c 18.39,0 27.81,26.5864 27.81,53.1754 v 29.598 c 0,23.367 -1.4,49.57 -23.61,49.57 -23.38,0 -23.59,-14.586 -23.59,-27.773 v -60 c 0,-27.5665 -10.39,-56.7814 -40.96,-56.7814 -32.78,0 -41.01,30.0196 -41.01,59.5784 v 41.98 c 0,26.801 6.83,54.785 41.01,55.172 11.37,0.211 26.97,-2.379 34.18,-22.562 7.38,20.781 15.98,22.773 30.37,22.773 33.58,0 37.78,-31.766 37.78,-58.355 z m 105.58,-30.578 c 0,-18.9965 -14.42,-36.2114 -41.98,-36.2114 -27.78,0 -41.98,18.8242 -41.98,35.6134 v 7.976 c 0,7.422 4.2,17.985 14.2,24.387 l 11.2,-6.789 c -8.4,-6.613 -11.2,-10.176 -11.2,-18.402 v -6.192 c 0,-13.1871 9.17,-24.3824 27.78,-24.3824 18.99,0 27.78,9.414 27.78,24.0004 v 16.793 c 0,9.585 -3.99,24.976 -16.2,24.976 h -13.4 v 12.387 h 13.4 c 13.61,0 15.22,18.785 15.22,27.39 v 4.622 c 0,10.773 -7.81,22.175 -25.61,22.175 -15.39,0 -24.77,-11.613 -24.77,-19.59 v -3.218 c 0,-7.973 1.99,-11.371 5.98,-16.965 l -11.79,-5.422 c -5.39,6.992 -8.6,13.816 -8.6,21.617 v 4.969 c 0,14.621 16.19,30.996 39.18,30.996 26.8,0 39.78,-16.793 39.78,-33.586 v -6.785 c 0,-7.211 1.01,-22.184 -18.37,-32.184 19.38,-9.589 19.38,-21.797 19.38,-31.382 z m 103.55,-0.805 c 0,-24.9806 -19.8,-35.4064 -41.98,-35.4064 -24.38,0 -41.98,16.0235 -41.98,37.4024 0,19.973 8.6,29.977 19.38,38.375 l 8.82,-8.781 c -10.43,-9.621 -13.99,-13.817 -13.99,-29.805 0,-15.9922 8.77,-24.9804 27.77,-24.9804 16.79,0 27.78,9.2031 27.78,23.5784 v 86.972 c 0,12.977 -9.2,21.793 -24,21.793 -14.97,0 -25.36,-8.394 -25.36,-22.004 0,-4.582 0.8,-8.992 4.79,-15.183 l -10.6,-8.008 c -5.01,6.816 -7.6,14.621 -7.6,23.191 0,20.61 14.81,34.391 37.58,34.391 22.18,0 39.39,-12 39.39,-34.18 z m 211.48,62.762 c 0,-17.18 -13.99,-47.368 -31.55,-57.375 l -9.03,8.187 c 15.81,11.824 25.99,35.789 25.99,50.203 v 12.77 c 0,20.605 -9.96,31.59 -22.18,31.59 -19.59,0 -23.57,-12.77 -23.57,-28.793 v -31.766 h -13.2 v 31.766 c 0,15.601 -3.42,29.804 -20.99,29.804 -16.02,0 -20.99,-14.797 -20.99,-29.175 v -32.395 h -13.39 v 32.395 c 0,14.378 -1.02,28.164 -22.99,28.164 -16.02,0 -22.6,-15.571 -22.6,-35.161 l 0.21,-13.996 c -0.42,-46.808 50.38,-78.3629 110.13,-78.3629 h 14.8 V 68.0977 h -14.38 c -80.57,0 -124.16,46.1793 -124.96,92.1793 l -0.21,14.59 c 0,26.762 11.19,46.985 37.01,46.985 13.79,0 22.39,-3.813 30.96,-22.215 5.6,18.402 13.4,23.195 26.41,23.195 12.18,0 20.78,-4.793 27.19,-22.18 7.8,17.387 19.38,21.2 30.36,21.2 20.61,0 36.98,-15.395 36.98,-42.997 z m 154.35,-2.379 c 0,27.984 -1.61,48.765 -25.4,48.765 -17.17,0 -25.57,-10.386 -25.57,-30.574 v -62.969 h -14.2 v 62.969 c 0,21.375 -8.4,30.574 -25.79,30.574 -22.18,0 -25.57,-20.781 -25.57,-49.781 v -26.797 c 0,-26.762 7.59,-55.7654 27.78,-55.7654 v -12.211 c -33.59,0 -42.19,36.8044 -42.19,67.5934 v 27.18 c 0,30.578 4.79,62.168 40.19,62.168 16.97,0 25.79,-8.398 32.19,-22.773 5.39,14.375 14.8,22.773 33.16,22.773 33.8,0 40.2,-30.996 40.2,-60.559 l -0.21,-28.789 c 0,-29.179 -10.01,-67.5934 -41.77,-67.5934 v 12.211 c 18.4,0 27.18,28.3714 27.18,56.3594 z m 116.95,-35.407 c 0,22.602 -9.58,31.594 -29.38,31.594 -16.97,0.383 -30.19,-15.777 -30.19,-34.601 v -11.368 c 0,-17.3902 12,-33.7964 30.02,-33.7964 15.98,0 29.55,13.9922 29.55,31.8004 z m 14.21,-16.371 c 0,-26.4137 -20.99,-44.0114 -43.76,-44.0114 -24,0 -44.19,23.1953 -44.19,45.4104 v 14.168 c 0,24.211 17.39,44.992 44.19,44.992 9.37,0 24.76,-2.801 30.57,-17.18 v 33.379 c 0,18.785 -0.8,24.766 -17.6,24.766 -10.81,0 -15.6,-6.574 -15.6,-16.789 v -5.391 h -11.79 v 5.391 c 0,11.82 -8.99,16.789 -17.98,16.789 -9.58,0 -12.21,-6.996 -12.21,-11.965 v -16.613 h -11.58 v 16.613 c 0,12.769 9.8,23.16 22.39,23.16 13.19,0 19.38,-4.582 24.98,-15.566 6.19,10.39 12.8,15.566 23.4,15.566 21.59,0 29.18,-11.195 29.18,-35.367 z m 105.55,17.985 c -0.21,-26.801 -7.21,-56.5745 -31,-61.9964 l -1.19,12.211 c 9.8,0 17.98,17.9804 17.98,49.1874 v 37.961 c 0,28.402 -5.6,45.195 -26.97,45.195 -23.4,0 -28.58,-17.211 -28.58,-45.793 v -37.363 c 0,-30.6093 5.59,-49.1874 14.59,-49.1874 l -0.21,-12.211 c -24.18,4.6211 -28.59,36.0004 -28.59,61.3984 v 36.977 c 0,26.976 7.21,58.566 41.99,58.566 35.57,0 42.19,-26.973 42.19,-57.582 l -0.21,-37.363"
         style="fill:#003399;fill-opacity:1;fill-rule:nonzero;stroke:none"
         id="path22"
         inkscape:connector-curvature="0" /><path
         d="m 909.039,112.703 c 0,-15.5038 -5.953,-28.9139 -15.797,-38.5155 -9.914,-9.6641 -23.719,-15.3828 -39.289,-15.3828 -16.289,0 -31.012,6.5664 -41.543,18.0156 -9.984,10.8555 -16.129,26.0467 -16.129,44.0667 v 39.183 c 0,8.485 0.805,21.434 4.532,35.672 2.617,10.024 6.695,20.668 12.957,30.801 l 4.437,7.172 6.273,-5.598 9.415,-8.394 4.218,-3.77 -2.722,-4.922 c -3.321,-6.004 -5.743,-13.781 -7.418,-21.773 -2.203,-10.504 -3.106,-21.344 -3.106,-29.188 v -39.183 c 0,-9.094 3.375,-18.836 9.367,-25.9261 4.918,-5.8242 11.664,-9.7734 19.719,-9.7734 8.164,0 14.527,2.8906 18.91,7.4063 4.965,5.1132 7.59,12.4142 7.59,20.1092 v 7.379 c 0,6.742 -1.176,12.332 -3.742,15.871 -1.836,2.524 -4.703,4.016 -8.762,4.016 h -15.183 -7.086 v 7.086 12.211 7.086 h 7.086 15.183 c 3.699,0 6.426,1.343 8.336,3.175 2.899,2.778 4.168,6.414 4.168,8.524 0,3.707 -4.398,6.742 -9.355,10.164 -9.977,6.883 -21.43,14.789 -21.43,34.617 v 7.086 h 7.086 12 7.086 v -7.086 c 0,-6.285 6.308,-10.57 12.781,-14.965 10.059,-6.836 20.418,-13.871 20.418,-29.394 0,-4.387 -0.074,-10.485 -4.312,-16.953 -2.024,-3.086 -4.965,-6.106 -9.274,-8.79 4.543,-3.296 7.598,-7.187 9.66,-11.257 3.856,-7.618 3.926,-15.192 3.926,-20.797 z M 891.715,96.582 c 2.035,4.84 3.152,10.266 3.152,16.121 v 7.973 c 0,4.004 -0.039,9.324 -2.086,13.82 1.25,-4.336 1.844,-9.203 1.844,-14.414 v -7.379 c 0,-5.578 -0.988,-11.055 -2.91,-16.121 z M 822.82,86.3945 c 0.41,-0.4492 0.832,-0.8828 1.262,-1.3086 l -0.644,0.7422 c -8.157,9.6446 -12.743,22.8169 -12.743,35.0589 v 39.183 c 0,6.563 0.59,15.094 1.965,23.965 -1.769,-9.457 -2.207,-17.93 -2.207,-23.965 v -39.183 c 0,-14.297 4.711,-26.1722 12.367,-34.4925 z m 71.805,91.6565 c 0,-2.539 -0.695,-5.93 -2.184,-9.403 0.153,0.207 0.297,0.415 0.434,0.618 1.957,2.988 1.992,6.597 1.992,9.207 0,1.55 -0.269,2.988 -0.742,4.328 0.324,-1.453 0.5,-3.028 0.5,-4.75 z m 117.555,-76.754 c 0,-13.9103 -5.25,-24.1681 -13.602,-31.2032 -9.215,-7.7735 -22.039,-11.2891 -35.473,-11.2891 -13.937,0 -26.046,4.6523 -34.75,12.4023 -8.992,8.0118 -14.316,19.25 -14.316,32.086 0,11.34 2.524,19.992 6.621,27.07 4.035,6.981 9.485,12.184 15.5,16.867 l 4.926,3.833 4.402,-4.383 8.817,-8.782 5.234,-5.207 -5.43,-5.007 c -4.64,-4.286 -7.738,-7.317 -9.406,-10.551 -1.625,-3.145 -2.285,-7.25 -2.285,-14.051 0,-6.0664 1.508,-10.6172 4.641,-13.4375 3.234,-2.9101 8.535,-4.457 16.046,-4.457 6.7,0 12.083,1.707 15.653,4.7344 3.215,2.7304 5.039,6.7617 5.039,11.7581 v 86.972 c 0,4.481 -1.512,8.161 -4.234,10.633 -2.848,2.582 -7.176,4.074 -12.676,4.074 -5.856,0 -10.653,-1.531 -13.832,-4.289 -2.813,-2.441 -4.446,-6.066 -4.446,-10.629 0,-1.711 0.141,-3.355 0.621,-5.046 0.52,-1.821 1.454,-3.856 3.036,-6.317 l 3.554,-5.508 -5.242,-3.957 -10.601,-8.011 -5.719,-4.325 -4.246,5.789 c -2.953,4.028 -5.199,8.364 -6.707,12.973 -1.5,4.59 -2.27,9.406 -2.27,14.402 0,12.375 4.563,22.797 12.629,30.176 7.848,7.184 18.867,11.301 32.031,11.301 13.157,0 24.938,-3.813 33.375,-11.137 8.17,-7.086 13.11,-17.23 13.11,-30.129 z M 991.973,83.3711 C 995.734,87.6914 998,93.6016 998,101.297 v 87.355 c 0,2.723 -0.316,5.246 -0.914,7.559 0.586,-2.383 0.883,-4.906 0.883,-7.559 V 101.68 c 0,-7.1409 -2.125,-13.3402 -5.996,-18.3089 z m -63.762,19.9219 c 0,-0.668 0.023,-1.324 0.062,-1.977 -0.019,0.582 -0.031,1.168 -0.031,1.766 0,1.231 0.02,2.402 0.063,3.523 -0.063,-1.066 -0.094,-2.171 -0.094,-3.312 z m 164.359,29.594 c 0,13.519 -6.84,23.488 -20.52,23.488 -4,0 -9.71,-0.07 -13.71,-2.773 -4.02,-2.711 -7.19,-8.602 -7.19,-20.922 v -24.598 c 0,-6.941 1.83,-13.1172 5.64,-17.2304 3.24,-3.5 8.2,-5.6641 15.05,-5.6641 7.09,0 12.24,1.918 15.46,5.5547 3.51,3.9648 5.27,10.2928 5.27,18.7378 z m 14.1,2.867 c 0.03,-0.645 0.05,-1.297 0.06,-1.949 z m -69.69,-3.074 c 0,1.586 0.04,3.105 0.13,4.562 l -0.16,-0.254 v -28.906 c 0,-2.437 0.17,-4.769 0.51,-6.984 -0.32,2.273 -0.48,4.609 -0.48,6.984 z m 69.75,-24.032 c -0.08,-6.996 -1.19,-13.1246 -3.34,-18.3238 2.2,4.9375 3.34,10.8478 3.34,17.5468 z m 14.18,-0.777 c 0,-14.871 -4.53,-27.203 -13.16,-35.8788 -8.4,-8.4453 -20.44,-13.1875 -35.7,-13.1875 -14.36,0 -26.77,4.9023 -35.61,13.7266 l -0.01,0.0156 -0.02,0.0156 c -8.59,8.6055 -13.64,20.7578 -13.64,35.5195 v 85.363 c 0,10.774 3.18,18.985 8.4,24.754 5.96,6.582 14.31,9.727 23.49,9.727 6.63,0 12.9,-1.434 18.96,-2.821 4.84,-1.109 9.53,-2.183 13.61,-2.183 6.58,0 11.6,2.258 20.17,6.117 h 0.03 l 0.53,0.242 9.97,4.453 v -10.902 -10.777 -3.985 l -3.46,-2.078 c -4.98,-2.988 -9.54,-5.125 -14.16,-6.539 -4.77,-1.453 -9.43,-2.109 -14.48,-2.109 -5.71,0 -10.68,1.086 -15.65,2.176 -4.22,0.921 -8.45,1.847 -12.72,1.847 l -0.11,0.028 -0.71,0.011 v -0.023 c -2.53,0 -4.18,-0.653 -5.09,-1.735 -1.15,-1.339 -1.72,-3.535 -1.81,-6.21 v 0 l -0.02,-0.797 h 0.03 v -16.75 c 0.71,0.476 1.44,0.922 2.16,1.336 6.89,3.964 13.91,5.324 19.93,5.324 14.77,0 26.55,-5.367 34.9,-13.719 l 0.01,0.016 c 9.27,-9.262 14.16,-22.149 14.16,-35.364 z m 131.15,13.016 c 0,-17.192 -7.48,-32.2112 -18.67,-43.1643 -12.06,-11.8047 -28.52,-18.918 -44.6,-18.918 -16.28,0 -32.84,7.0039 -44.95,18.7773 -11.23,10.918 -18.7,25.941 -18.7,43.305 v 30.191 c 0,17.469 6.53,32.68 16.55,44.125 8.61,9.836 19.84,16.887 31.74,20.203 l -2.14,4.215 -5.24,10.297 h 11.55 20.6 10.72 l -4.21,-9.855 -1.87,-4.36 c 12.22,-3.098 23.77,-10.129 32.59,-20.133 l -0.02,-0.015 c 10.08,-11.434 16.65,-26.742 16.65,-44.477 z m -15.49,-10.703 c 0.86,3.421 1.32,7 1.32,10.703 v 30.191 c 0,2.61 -0.18,5.152 -0.51,7.617 0.2,-2.437 0.3,-4.98 0.3,-7.617 v -30.191 c 0,-3.649 -0.38,-7.231 -1.11,-10.703 z m -97.26,10.703 c 0,-2.332 0.18,-4.61 0.52,-6.828 -0.33,2.269 -0.49,4.55 -0.49,6.828 v 30.191 c 0,0.992 0.02,1.973 0.05,2.938 -0.05,-0.973 -0.08,-1.95 -0.08,-2.938 z m 84.2,30.191 c 0,13.043 -2.92,22.684 -8.12,29.152 -3.77,4.688 -8.9,7.825 -15.1,9.485 l 2.77,-58.317 0.35,-7.418 h -7.41 -15.18 -7.41 l 0.35,7.418 2.75,57.95 c -5.88,-1.883 -10.97,-5.164 -14.79,-9.938 -5.14,-6.433 -8.21,-15.773 -8.21,-28.332 v -30.191 c 0,-9.324 3.83,-18.739 10.59,-25.5628 6.05,-6.1054 14.49,-10.1367 24.69,-10.1367 9.95,0 18.46,3.918 24.53,10.1289 6.41,6.5586 10.19,15.7036 10.19,25.5706 z m -34.92,-12.922 -0.18,3.797 -0.18,-3.797 z m 227.37,-23.074 c 0,-11.242 -6.14,-27.3203 -16.25,-39.2031 h -0.03 c -8.45,-9.9336 -19.72,-17.2461 -32.78,-17.2461 h -7.09 v 7.086 12.3828 7.0859 h 7.09 c 4.55,0 9.06,3.5117 12.72,8.3438 4.91,6.4887 8,14.9487 8,21.3397 v 15.813 c 0,9.632 -2.19,15.964 -5.28,20.015 -3.92,5.145 -9.46,6.692 -13.41,6.692 -4.39,0 -9.67,-1.692 -13.39,-6.211 -3.04,-3.707 -5.14,-9.446 -5.14,-17.91 v -22.981 -7.09 h -7.08 -14.38 -7.09 v 7.09 22.981 c 0,8.492 -2.08,14.246 -5.11,17.964 -3.65,4.485 -8.85,6.157 -13.2,6.157 -4.62,0 -9.27,-1.078 -12.55,-4.465 -3.67,-3.778 -6.15,-10.625 -6.15,-22.242 v -16.2 c 0,-6.429 2.79,-15.0543 7.71,-21.5035 3.46,-4.5274 7.93,-7.793 12.98,-7.793 h 7.09 v -7.0859 -12.211 -7.0859 h -7.09 c -14.27,0 -25.49,7 -33.64,16.6094 -10.35,12.2148 -15.64,28.9919 -15.64,40.2619 v 15.008 c 0,24.011 5.4,48.73 22.78,67.707 17.21,18.797 45.84,31.527 92.06,31.527 h 7.09 v -7.086 -12.387 -7.086 h -7.09 c -21.87,0 -39.53,-3.496 -53.08,-9.664 v -0.023 c -7.06,-3.215 -13.02,-7.16 -17.87,-11.703 l 1.91,0.414 0.76,0.168 h 0.73 c 7.02,0 14.42,-0.133 21.73,-3.961 4.14,-2.172 7.96,-5.406 11.2,-10.274 3.51,4.911 7.51,8.153 11.68,10.301 7.38,3.801 14.58,3.934 20.78,3.934 12.87,0 25.69,-4.156 34.82,-14.387 7.43,-8.332 12.21,-20.512 12.21,-37.48 z m -79.73,2.293 v 12.34 l -0.21,-0.61 v -11.73 z m -65.56,13.309 c 0,15.191 3.82,25.089 9.53,31.39 l -6.13,-1.855 c -2.62,-9.512 -3.64,-19.567 -3.64,-29.535 v -15.008 c 0,-1.856 0.19,-3.906 0.57,-6.082 -0.22,1.695 -0.33,3.34 -0.33,4.89 z m 248.86,-2.829 c -0.13,-15.812 -2.54,-32.7339 -9.1,-45.8472 -5.72,-11.4492 -14.48,-20.0703 -27.41,-23.0117 l -7.8,-1.7773 -0.78,8.0078 -1.19,12.2109 -0.75,7.75 h 7.78 c 1.93,0 4.2,3.2148 6.39,9.1875 2.78,7.609 4.51,18.73 4.51,32.914 v 37.961 c 0,13.137 -1.2,23.387 -4.64,29.953 -2.78,5.289 -7.56,8.156 -15.25,8.156 -8.72,0 -13.93,-2.976 -16.84,-8.414 -3.56,-6.644 -4.65,-17.054 -4.65,-30.293 v -37.363 c 0,-14.621 1.28,-26.211 3.59,-34.0195 1.55,-5.2148 2.91,-8.082 3.91,-8.082 h 7.18 l -0.12,-7.1953 -0.22,-12.2109 -0.14,-8.4141 -8.24,1.5742 c -15.03,2.875 -23.78,13.6602 -28.71,27.5039 -4.44,12.5156 -5.63,27.5117 -5.63,40.8437 v 36.977 c 0,14.441 2,30.254 8.83,42.777 7.34,13.445 19.77,22.875 40.23,22.875 20.75,0 33.21,-8.129 40.56,-20.855 v -0.028 c 6.86,-11.89 8.72,-27.433 8.72,-43.785 l -0.03,-0.031 z m -14.22,-4.449 c 0.05,1.508 0.09,3.012 0.1,4.508 l 0.21,37.336 h -0.03 c 0,12.359 -1.09,23.965 -4.86,32.855 3.4,-8.523 4.62,-19.589 4.62,-32.855 v -37.961 c 0,-1.316 -0.01,-2.609 -0.04,-3.883 z m -69.69,41.246 c 0,1.34 0.01,2.661 0.04,3.957 -0.05,-1.457 -0.07,-2.906 -0.07,-4.343 v -36.977 c 0,-2.723 0.05,-5.516 0.18,-8.324 -0.1,2.676 -0.15,5.453 -0.15,8.324 z m 236.85,-52.16 c 0,-15.2303 -5.11,-28.5662 -13.73,-38.1443 -8.77,-9.7344 -21.08,-15.543 -35.34,-15.543 -14.78,0 -27.45,4.8906 -36.35,15.0195 -8.04,9.1485 -12.72,22.3711 -12.72,39.8558 v 109.152 7.086 h 7.09 14.21 7.08 V 222.832 113.68 c 0,-10.598 2.02,-17.7777 5.49,-22.2191 3.44,-4.4101 8.78,-6.2734 15.2,-6.2734 6.58,0 11.53,2.4492 14.83,6.6875 3.91,5.043 5.9,12.688 5.9,22.016 v 5.808 c 0,9.313 -6.52,17.719 -12.47,25.41 -6.42,8.278 -12.34,15.914 -12.34,25.352 0,3.465 0.32,6.816 1.31,10.332 0.98,3.484 2.61,6.988 5.21,10.711 l 2.87,4.117 4.82,-1.348 14.38,-4.027 10.12,-2.832 -6.44,-8.293 -0.85,-1.101 c -2.48,-3.2 -3.85,-4.961 -3.85,-7.559 0,-4.293 4.44,-9.438 9.28,-15.055 7.75,-9 16.3,-18.918 16.3,-33.539 z m -14.72,-7.523 c 0.36,2.418 0.55,4.929 0.55,7.523 v 0.524 c -0.03,-2.782 -0.22,-5.465 -0.55,-8.047 z m -69.24,8.711 c 0,-2.766 0.13,-5.383 0.39,-7.852 -0.24,2.469 -0.36,5.082 -0.36,7.852 v 102.066 h -0.03 z m 68.78,14.523 c 0.6,-2.488 0.96,-5.098 1.01,-7.848 v 1.512 c 0,2.196 -0.37,4.305 -1.01,6.336 z m 119.75,-16.902 c 0,-16.926 -4.19,-29.883 -12.5,-38.8322 -8.45,-9.0938 -20.74,-13.6641 -36.78,-13.6641 -15.24,0 -27.13,5.3984 -35.46,14.1328 -9,9.4414 -13.61,22.6367 -13.61,36.9645 v 7 c 0,4.801 1.22,9.758 3.27,14.692 2.15,5.168 5.29,10.39 8.9,15.386 l 3.55,4.907 5.36,-2.715 9.8,-4.969 6.33,-3.211 -3.23,-6.312 c -1.68,-3.282 -3.01,-6.735 -3.96,-9.926 -0.93,-3.191 -1.43,-5.965 -1.43,-7.852 v -7.629 c 0,-8.398 1.29,-14.7261 4.46,-18.6207 2.92,-3.5742 8.04,-5.4648 16.02,-5.4648 7.45,0 12.65,1.5508 15.71,5.1563 3.4,4.0195 5.01,10.9962 5.01,21.5542 v 11.579 c 0,17.269 -10.57,28.472 -21.04,39.57 -12.22,12.945 -24.33,25.785 -24.33,47.609 v 12.176 7.086 h 7.09 13.19 7.08 v -7.086 -12.176 c 0,-11.894 9.07,-21.578 18.79,-31.976 13.35,-14.278 27.78,-29.703 27.78,-55.203 z m -16.56,-17.8987 c 1.59,5.0079 2.38,10.9767 2.38,17.8987 v 12.176 c 0,3.355 -0.35,6.523 -0.98,9.527 0.5,-2.988 0.78,-6.152 0.78,-9.527 v -11.579 c 0,-7.207 -0.71,-13.3316 -2.18,-18.4957 z m -67.62,16.4997 c 0,-2.429 0.17,-4.804 0.5,-7.105 -0.17,2.07 -0.25,4.226 -0.25,6.476 v 7.629 c 0,1.434 0.14,3.102 0.44,4.926 -0.44,-1.711 -0.69,-3.363 -0.69,-4.926 z m 187.55,-8.816 c 0,-13.2227 -5.18,-23.6797 -13.89,-30.9727 -8.82,-7.3985 -21.18,-11.3086 -35.17,-11.3086 -13.8,0 -26.09,4.3086 -34.93,11.9297 -8.82,7.6094 -14.14,18.375 -14.14,31.3676 v 3.988 c 0,3.762 2.03,9.726 5.5,14.754 2.77,4.035 6.58,7.754 11.18,9.734 l 4.57,1.973 3.4,-3.664 7.59,-8.184 4.73,-5.101 -5.01,-4.809 c -2.69,-2.594 -3.05,-5.129 -3.44,-7.914 l -0.01,-0.043 -0.13,-1.852 c 0.02,-5.2106 1.39,-9.2067 4.38,-11.6754 3.22,-2.668 8.55,-4.1211 16.31,-4.1211 6.81,0 12.38,1.4766 16.02,4.332 2.95,2.3164 4.67,5.7969 4.67,10.3789 v 47.1566 c 0,4.269 -4.03,11.508 -9.79,17.457 -4.55,4.703 -9.98,8.273 -14.89,8.273 -5.51,0 -8.37,-1.238 -9.73,-2.902 -1.29,-1.578 -1.59,-3.985 -1.59,-6.035 0,-4.2 0.41,-4.598 2.54,-6.66 l 1.97,-1.899 3.74,-3.742 -2.56,-4.649 -5.59,-10.214 -3.53,-6.442 -6.27,3.727 c -6.36,3.773 -10.57,7.047 -13.47,11.703 -2.92,4.699 -4.06,10.133 -4.16,18.094 l -0.01,0.812 -0.03,0.082 c 0,9.653 3.67,18.133 10.37,24.324 6.42,5.934 15.59,9.598 26.86,9.891 h 0.09 l 1.29,0.016 0.08,0.031 c 9.2,0 16.84,-3.164 23.34,-8.082 0.8,-0.606 1.59,-1.242 2.35,-1.899 v 15.399 h -13.31 -7.08 v 7.086 11.406 7.086 h 7.08 33.59 7.08 v -7.086 z m -14.2,-1.4532 c 0.02,0.4762 0.03,0.9612 0.03,1.4532 v 47.047 l -0.08,0.113 c 0.04,-0.406 0.05,-0.801 0.05,-1.191 V 99.8984 Z m -69.76,2.4692 c 0,-0.497 0.01,-0.985 0.04,-1.469 l -0.01,0.453 0.03,0.5 0.18,2.414 0.05,0.469 0.05,0.351 c 0.25,1.743 0.48,3.434 0.91,5.129 -0.81,-1.597 -1.25,-2.996 -1.25,-3.859 z m 190.7,9.199 c 0,-16.926 -4.19,-29.883 -12.5,-38.8322 -8.45,-9.0938 -20.73,-13.6641 -36.77,-13.6641 -15.24,0 -27.13,5.3984 -35.46,14.1328 -9.01,9.4414 -13.62,22.6367 -13.62,36.9645 v 7 c 0,4.801 1.22,9.758 3.28,14.692 2.15,5.168 5.28,10.39 8.9,15.386 l 3.54,4.907 5.37,-2.715 9.79,-4.969 6.33,-3.211 -3.22,-6.312 c -1.68,-3.282 -3.02,-6.735 -3.96,-9.926 -0.94,-3.191 -1.44,-5.965 -1.44,-7.852 v -7.629 c 0,-8.398 1.29,-14.7261 4.47,-18.6207 2.91,-3.5742 8.03,-5.4648 16.02,-5.4648 7.45,0 12.65,1.5508 15.71,5.1563 3.4,4.0195 5.01,10.9962 5.01,21.5542 v 11.579 c 0,17.269 -10.57,28.472 -21.05,39.57 -12.21,12.945 -24.32,25.785 -24.32,47.609 v 12.176 7.086 h 7.08 13.19 7.09 v -7.086 -12.176 c 0,-11.894 9.06,-21.578 18.78,-31.976 13.36,-14.278 27.78,-29.703 27.78,-55.203 z M 1970.6,93.4023 c 1.58,5.0079 2.38,10.9767 2.38,17.8987 v 12.176 c 0,3.355 -0.35,6.523 -0.99,9.527 0.51,-2.988 0.78,-6.152 0.78,-9.527 v -11.579 c 0,-7.207 -0.71,-13.3316 -2.17,-18.4957 z m -67.62,16.4997 c 0,-2.429 0.17,-4.804 0.5,-7.105 -0.18,2.07 -0.26,4.23 -0.26,6.476 v 7.629 c 0,1.434 0.15,3.102 0.44,4.926 -0.44,-1.711 -0.68,-3.363 -0.68,-4.926 z m 250.1,5.18 c 0,-11.242 -6.15,-27.3203 -16.25,-39.2031 h -0.03 c -8.45,-9.9336 -19.73,-17.2461 -32.78,-17.2461 h -7.09 v 7.086 12.3828 7.0859 h 7.09 c 4.55,0 9.06,3.5117 12.72,8.3438 4.91,6.4887 8,14.9487 8,21.3397 v 15.813 c 0,9.632 -2.19,15.964 -5.28,20.015 -3.92,5.145 -9.47,6.692 -13.42,6.692 -4.38,0 -9.66,-1.692 -13.38,-6.211 -3.04,-3.707 -5.14,-9.446 -5.14,-17.91 v -22.981 -7.09 h -7.09 -14.37 -7.09 v 7.09 22.981 c 0,8.492 -2.08,14.246 -5.11,17.964 -3.65,4.485 -8.85,6.157 -13.2,6.157 -4.62,0 -9.27,-1.082 -12.55,-4.465 -3.66,-3.778 -6.15,-10.625 -6.15,-22.242 v -16.2 c 0,-6.429 2.79,-15.0543 7.71,-21.5035 3.46,-4.5274 7.93,-7.793 12.98,-7.793 h 7.09 v -7.0859 -12.211 -7.0859 h -7.09 c -14.27,0 -25.5,7 -33.64,16.6094 -10.35,12.2148 -15.63,28.9919 -15.63,40.2619 v 15.008 c 0,24.011 5.39,48.73 22.77,67.707 17.21,18.797 45.84,31.527 92.06,31.527 h 7.09 v -7.086 -12.387 -7.086 h -7.09 c -21.87,0 -39.53,-3.496 -53.08,-9.664 v -0.023 c -7.07,-3.211 -13.02,-7.16 -17.87,-11.703 l 1.9,0.414 0.77,0.168 h 0.73 c 7.02,0 14.42,-0.133 21.73,-3.961 4.14,-2.172 7.95,-5.406 11.2,-10.274 3.51,4.911 7.5,8.153 11.68,10.301 7.38,3.801 14.58,3.934 20.77,3.934 12.88,0 25.7,-4.156 34.83,-14.387 7.43,-8.332 12.21,-20.512 12.21,-37.48 z m -79.73,2.293 v 12.348 l -0.21,-0.61 v -11.738 z m -65.56,13.309 c 0,15.191 3.82,25.089 9.53,31.39 l -6.13,-1.855 c -2.63,-9.508 -3.64,-19.563 -3.64,-29.535 v -15.008 c 0,-1.856 0.19,-3.906 0.57,-6.082 -0.22,1.695 -0.33,3.34 -0.33,4.89 z m 221.52,51.988 c 0,5.683 -1.55,11.586 -5.34,15.551 l -0.01,-0.012 c -2.97,3.094 -7.53,5.148 -14.15,5.148 -7.97,0 -12.7,-4.437 -15.45,-10.855 -3.38,-7.891 -4.26,-18.715 -4.26,-29.043 v -36.383 c 0,-15.199 1.16,-26.484 4.62,-33.5311 2.72,-5.5469 7.43,-8.3594 15.09,-8.3594 6.92,0 11.58,2.8555 14.46,8.0625 3.56,6.4063 5.04,16.27 5.04,28.828 z m -47.96,15.371 c 1.21,2.816 2.64,5.426 4.33,7.754 -1.16,-1.356 -2.18,-2.817 -3.07,-4.371 -5.23,-9.082 -6.72,-21.594 -6.72,-33.977 v -41.98 c 0,-2.656 0.07,-5.313 0.22,-7.946 -0.13,3.036 -0.18,6.223 -0.18,9.555 v 36.383 c 0,11.855 1.11,24.531 5.42,34.582 z m 62.13,-75.965 c 0,-3.355 -0.1,-6.57 -0.32,-9.64 0.36,3.382 0.53,6.82 0.53,10.234 v 57.148 l -0.21,0.575 z m 75.74,10.602 c 0,-18.032 -3.79,-38.1956 -12.94,-52.762 -7.93,-12.6094 -19.66,-21.1133 -36.12,-21.1133 h -7.09 v 7.0859 12.211 7.0859 h 7.09 c 5.57,0 10.14,4.2617 13.56,10.793 4.75,9.0935 7.16,22.1135 7.16,35.2965 v 29.598 c 0,11.113 -0.31,22.848 -3.11,31.336 -2.18,6.59 -6.14,11.148 -13.41,11.148 -8.58,0 -12.62,-2.171 -14.39,-5.316 -2.07,-3.699 -2.11,-9.68 -2.11,-15.371 v -60 c 0,-16.481 -3.55,-33.672 -12.47,-46.047 -7.76,-10.7656 -19.29,-17.8203 -35.58,-17.8203 -17.21,0 -28.79,7.1172 -36.37,18.1367 -8.87,12.8789 -11.72,30.8746 -11.72,48.5276 v 41.98 c 0,14.414 1.92,29.305 8.66,41.008 7.17,12.465 19.3,20.984 39.32,21.223 6.58,0.117 14.46,-0.602 21.94,-4.379 4.29,-2.164 8.36,-5.262 11.86,-9.66 2.77,4.336 5.82,7.39 9.25,9.574 6.38,4.051 13.21,4.703 21.61,4.703 20.15,0 31.54,-9.637 37.91,-23.301 5.79,-12.445 6.95,-28.035 6.95,-42.14 z m -14.97,48.703 c 0.63,-6.129 0.78,-12.539 0.8,-18.781 v 1.875 c 0,5.55 -0.19,11.32 -0.8,16.906 z m 120.55,-79.281 c 0,-12.0278 -4.84,-23.4926 -14.32,-31.6606 -8.25,-7.1172 -19.91,-11.6367 -34.74,-11.6367 -14.58,0 -26.01,4.6445 -34.17,11.5664 -9.89,8.3867 -14.9,20.1094 -14.9,31.1329 v 7.976 c 0,5.149 1.55,11.418 4.97,17.297 2.82,4.828 6.94,9.465 12.53,13.043 l 3.69,2.356 3.76,-2.274 11.19,-6.789 8.73,-5.293 -8.01,-6.304 c -3.62,-2.848 -5.96,-4.93 -7.17,-6.828 -0.93,-1.473 -1.31,-3.29 -1.31,-6.012 v -6.192 c 0,-4.9567 1.74,-9.4488 5.23,-12.5113 3.36,-2.9493 8.48,-4.7852 15.46,-4.7852 7.43,0 12.7,1.5938 15.98,4.4219 3.18,2.75 4.71,7.0586 4.71,12.4926 v 16.793 c 0,4.476 -1,10.414 -3.61,14.437 -1.31,2.023 -3.12,3.453 -5.5,3.453 h -13.4 -7.09 v 7.086 12.387 7.086 h 7.09 13.4 c 2.31,0 3.9,1.414 4.99,3.375 2.69,4.836 3.14,12.441 3.14,16.929 v 4.622 c 0,3.949 -1.52,8.007 -4.8,10.843 -2.95,2.559 -7.45,4.246 -13.72,4.246 -5.19,0 -9.4,-1.707 -12.43,-4.105 -3.37,-2.664 -5.25,-5.957 -5.25,-8.399 v -3.218 c 0,-3.055 0.33,-5.11 0.99,-6.801 0.72,-1.84 1.97,-3.703 3.66,-6.07 l 4.94,-6.946 -7.77,-3.574 -11.78,-5.422 -5.1,-2.347 -3.43,4.453 c -3.07,3.988 -5.54,7.968 -7.27,12.113 -1.83,4.41 -2.83,8.965 -2.83,13.824 v 4.969 c 0,9.816 5.5,20.086 14.82,27.453 8.01,6.336 18.89,10.629 31.45,10.629 14.23,0 25.23,-4.277 33.01,-10.844 9.28,-7.844 13.85,-18.84 13.85,-29.828 v -6.785 h -0.03 l 0.01,-1 c 0.04,-7.457 0.12,-20.262 -12.41,-30.996 5.19,-4.106 8.38,-8.535 10.37,-13.004 l 0.02,0.004 c 3.05,-6.883 3.05,-13.106 3.05,-18.57 z m -14.27,-2.4887 c 0.07,0.8207 0.1,1.6527 0.1,2.4887 v 16.793 c 0,4.113 0,8.796 -1.78,12.812 v 0.027 l -0.23,0.489 c 1.39,-4.629 1.98,-9.407 1.98,-13.328 v -16.793 c 0,-0.844 -0.02,-1.672 -0.07,-2.4887 z m -69.69,1.8907 c 0,-1.8595 0.23,-3.7501 0.68,-5.6329 -0.43,2.1445 -0.64,4.3589 -0.64,6.6129 v 6.192 c 0,0.953 0.02,1.863 0.09,2.738 -0.08,-0.672 -0.13,-1.32 -0.13,-1.934 z m 68.78,81.285 c -0.04,-3.039 -0.27,-7.012 -1.01,-11.133 z m -3.1,18.543 c 2.01,-3.957 3.02,-8.269 3.1,-12.516 v 0.43 c 0,4.172 -1.03,8.34 -3.1,12.086 z m -61.45,-10.477 c 0,3.79 1.36,8.071 3.93,12.055 -2.68,-3.551 -4.17,-7.43 -4.17,-11.074 v -4.969 c 0,-1.762 0.22,-3.465 0.64,-5.125 -0.26,1.774 -0.4,3.707 -0.4,5.895 z m 64.55,-8.394 v 0.328 z m 0.03,-0.027 -0.03,0.027 z m 0,-1.028 v 1.028 z m 118.71,-80.109 c 0,-13.9103 -5.25,-24.1681 -13.6,-31.2032 -9.21,-7.7735 -22.04,-11.2891 -35.47,-11.2891 -13.94,0 -26.05,4.6523 -34.75,12.4023 -8.99,8.0118 -14.32,19.25 -14.32,32.086 0,11.34 2.53,19.992 6.62,27.07 4.04,6.977 9.49,12.18 15.5,16.867 l 4.93,3.836 4.4,-4.386 8.82,-8.782 5.23,-5.207 -5.43,-5.007 c -4.64,-4.286 -7.74,-7.317 -9.4,-10.551 -1.62,-3.145 -2.29,-7.25 -2.29,-14.051 0,-6.0664 1.51,-10.6172 4.64,-13.4375 3.24,-2.9101 8.54,-4.457 16.05,-4.457 6.7,0 12.08,1.707 15.65,4.7344 3.22,2.7304 5.04,6.7617 5.04,11.7581 v 86.972 c 0,4.481 -1.51,8.161 -4.23,10.633 -2.85,2.582 -7.18,4.074 -12.68,4.074 -5.86,0 -10.65,-1.531 -13.83,-4.289 -2.81,-2.441 -4.45,-6.066 -4.45,-10.629 0,-1.711 0.14,-3.355 0.62,-5.046 0.52,-1.821 1.46,-3.86 3.04,-6.317 l 3.55,-5.512 -5.24,-3.953 -10.6,-8.011 -5.72,-4.325 -4.24,5.789 c -2.96,4.028 -5.2,8.364 -6.71,12.973 -1.5,4.59 -2.27,9.406 -2.27,14.402 0,12.375 4.57,22.797 12.63,30.176 7.85,7.184 18.86,11.301 32.03,11.301 13.16,0 24.94,-3.813 33.37,-11.137 8.17,-7.086 13.11,-17.23 13.11,-30.129 z m -20.2,-17.9259 c 3.76,4.3203 6.03,10.2305 6.03,17.9259 v 87.355 c 0,2.723 -0.32,5.246 -0.92,7.559 0.59,-2.383 0.89,-4.906 0.89,-7.559 V 101.68 c 0,-7.1409 -2.13,-13.3402 -6,-18.3089 z m -63.76,19.9219 c 0,-0.668 0.02,-1.324 0.06,-1.977 -0.02,0.582 -0.03,1.168 -0.03,1.766 0,1.231 0.02,2.402 0.06,3.523 -0.06,-1.066 -0.09,-2.171 -0.09,-3.312 z m 295.44,60.766 c 0,-10.219 -4.28,-24.286 -11.13,-36.743 -6.15,-11.191 -14.54,-21.375 -24.03,-26.777 l -4.43,-2.5273 -3.79,3.4413 -9.02,8.184 -6.37,5.777 6.86,5.133 c 6.5,4.855 11.98,12.164 15.99,19.914 4.56,8.82 7.16,17.98 7.16,24.613 v 12.77 c 0,8.336 -1.8,14.613 -4.71,18.765 -2.66,3.778 -6.35,5.735 -10.39,5.735 -7.06,0 -11.1,-1.985 -13.24,-5.203 -2.52,-3.797 -3.25,-9.723 -3.25,-16.5 v -31.766 -7.086 h -7.08 -13.2 -7.08 v 7.086 31.766 c 0,6.781 -0.66,13.105 -3,17.324 -1.82,3.273 -5.15,5.394 -10.91,5.394 -4.58,0 -7.7,-1.8 -9.69,-4.578 -3.07,-4.258 -4.21,-10.851 -4.21,-17.511 v -32.395 -7.086 h -7.09 -13.39 -7.09 v 7.086 32.395 c 0,6.214 -0.18,12.234 -2.32,15.96 -1.76,3.086 -5.65,5.114 -13.58,5.114 -4.84,0 -8.34,-2.215 -10.69,-5.864 -3.33,-5.183 -4.82,-13.109 -4.82,-22.207 h -0.03 l 0.21,-13.914 v -0.109 -0.547 h 0.02 c 0,-20.523 11.26,-37.848 29.17,-50.164 18.66,-12.8359 44.41,-20.3124 72.42,-20.5585 l 1.46,-0.0078 V 89 h 14.8 7.09 v -7.0859 -13.8164 -7.086 h -7.09 -14.38 c -39.24,0 -70.24,10.6211 -92.27,26.875 -25.72,18.9683 -39.29,45.6093 -39.75,72.2813 v 0.027 l -0.21,14.59 -0.03,0.082 c 0,15.582 3.57,29.356 11.28,39.141 7.36,9.355 18.17,14.933 32.82,14.933 8.18,0 14.97,-1.226 21.31,-5.398 3.1,-2.039 5.95,-4.711 8.64,-8.223 2.05,3.45 4.35,6.168 6.95,8.297 5.74,4.692 12.37,6.301 20.47,6.301 7.55,0 14.11,-1.578 19.99,-6.008 h 0.04 c 2.87,-2.168 5.47,-4.969 7.83,-8.562 3,3.683 6.26,6.441 9.69,8.488 6.55,3.91 13.41,5.105 20,5.105 12.74,0 24.17,-4.992 32.28,-14.425 7.33,-8.512 11.79,-20.559 11.79,-35.661 z m -19.83,-22.407 c 3.56,8.168 5.65,16.301 5.65,22.407 v 14.796 c 0,10.313 -2.53,18.543 -6.78,24.481 3.97,-6.336 6.37,-14.898 6.37,-25.492 v -12.77 c 0,-6.668 -1.86,-15.027 -5.24,-23.422 z m -168.85,32.621 c 0,11.239 2.05,21.489 6.59,29.036 -4.65,-7.082 -6.83,-17.02 -6.83,-28.442 h -0.03 l 0.22,-14.476 c 0.05,-2.953 0.29,-5.911 0.73,-8.856 -0.31,2.672 -0.47,5.395 -0.47,8.168 l 0.03,0.027 v 0.497 l -0.21,13.964 z m 328.86,-12.593 c 0,13.293 -0.36,24.789 -3.28,32.332 -2.28,5.847 -6.68,9.347 -15.04,9.347 -6.34,0 -10.91,-1.718 -13.74,-5.105 -3.17,-3.789 -4.74,-9.941 -4.74,-18.383 v -62.969 -7.089 h -7.09 -14.2 -7.09 v 7.089 62.969 c 0,8.938 -1.54,15.078 -4.66,18.711 -2.8,3.266 -7.48,4.777 -14.04,4.777 -7.67,0 -12.09,-3.566 -14.57,-9.613 -3.17,-7.73 -3.91,-19.363 -3.91,-33.082 v -26.797 c 0,-13.754 2.07,-28 6.96,-37.8162 3.26,-6.5391 7.77,-10.8633 13.73,-10.8633 h 7.08 v -7.0859 -12.211 -7.0859 h -7.08 c -17.46,0 -29.27,8.3203 -37.02,20.7461 -9.25,14.8125 -12.26,35.4692 -12.26,53.9332 v 27.18 c 0,16.125 1.33,32.641 7.54,45.594 6.78,14.133 18.78,23.66 39.74,23.66 10.11,0 17.94,-2.613 24.32,-7.465 2.88,-2.187 5.39,-4.785 7.62,-7.769 2.2,3.027 4.78,5.656 7.78,7.855 6.55,4.793 14.86,7.379 25.63,7.379 20.09,0 32.09,-9.316 39.09,-23.07 6.43,-12.633 8.2,-28.864 8.2,-44.575 l -0.03,-0.027 -0.21,-28.762 h 0.03 c 0,-17.55 -3.5,-38.3902 -12.8,-53.4488 -7.79,-12.5977 -19.41,-21.2305 -36.06,-21.2305 h -7.09 v 7.0859 12.211 7.0859 h 7.09 c 5.37,0 9.76,4.4805 13.07,11.3359 4.72,9.7896 7.03,23.8396 7.03,37.9376 z m -50.98,18.191 0.02,1.649 -0.07,0.152 0.02,-1.801 v -55.883 h 0.03 z m -65.56,-19.207 c 0,8.992 0.34,17.285 1.43,24.609 -1.3,-7.683 -1.67,-16.168 -1.67,-24.609 v -27.18 c 0,-16.304 2.49,-34.2574 10.1,-46.4606 l 0.69,-1.0703 c -0.74,1.2071 -1.43,2.4688 -2.09,3.7891 -5.94,11.9258 -8.46,28.4608 -8.46,44.1248 z m 131.36,1.609 h -0.03 c 0,6.965 -0.36,13.985 -1.38,20.543 z m -0.21,-28.761 0.21,28.761 z m -0.02,-0.028 0.02,0.028 z m -7.92,-40.9801 c 5.7,12.0391 7.92,27.5081 7.92,40.9801 z m 7.5,41.9571 c 0,-15.059 -2.46,-30.371 -7.5,-41.9571 z m 0,27.219 v -27.219 z m 102.78,-35.407 c 0,9.391 -1.74,15.696 -5.28,19.372 -3.41,3.558 -9.09,5.136 -17.02,5.136 l -0.06,0.028 -0.53,0.004 v -0.028 c -6.03,0 -11.46,-2.922 -15.45,-7.558 -4.26,-4.938 -6.92,-11.774 -7.08,-19.196 l -0.01,-0.765 h 0.02 v -11.368 c 0,-7.316 2.58,-14.3707 7.07,-19.4253 v -0.0274 c 3.91,-4.4062 9.37,-7.2578 15.87,-7.2578 6.03,0 11.64,2.6992 15.73,7.1016 4.14,4.4492 6.74,10.6409 6.74,17.6129 z m -49.03,26.204 c 0.48,0.554 0.97,1.093 1.47,1.617 -0.45,-0.414 -0.89,-0.844 -1.32,-1.278 -6.82,-6.945 -10.7,-16.734 -10.7,-27.347 v -2.184 l 0.03,0.063 0.01,0.906 v 0.055 c 0.24,10.793 4.18,20.824 10.51,28.168 z m -10.45,-43.594 c -0.05,0.765 -0.08,1.531 -0.1,2.301 0.01,-0.766 0.04,-1.536 0.1,-2.301 z m 73.65,1.019 c 0,-3.488 -0.43,-6.859 -1.24,-10.0582 0.83,3.1362 1.27,6.5002 1.27,10.0582 v 9.387 l -0.03,0.082 z m 14.21,0 c 0,-14.7301 -5.7,-27.1403 -14.57,-36.0622 -9.5,-9.5468 -22.63,-15.0351 -36.28,-15.0351 -13.71,0 -26.29,6.3711 -35.53,15.8672 -9.65,9.9219 -15.75,23.3906 -15.75,36.6291 v 14.168 c 0,14.316 5.35,27.648 14.79,37.258 8.95,9.105 21.47,14.82 36.49,14.82 6.34,0 15.13,-1.141 22.87,-5.488 l 0.61,-0.36 v 14.961 c 0,8.211 -0.12,13.535 -1.47,15.801 -0.81,1.352 -3.46,1.879 -9.04,1.879 -3.12,0 -5.23,-0.727 -6.42,-2.016 -1.42,-1.531 -2.09,-4.191 -2.09,-7.687 v -5.391 -7.086 h -7.09 -11.79 -7.08 v 7.086 5.391 c 0,3.246 -1.01,5.511 -2.54,6.941 -2.03,1.899 -5.14,2.762 -8.36,2.762 -2.01,0 -3.21,-0.445 -3.87,-1.086 -0.93,-0.918 -1.25,-2.473 -1.25,-3.793 v -16.613 -7.09 h -7.09 -11.58 -7.09 v 7.09 16.613 c 0,8.301 3.23,15.855 8.53,21.332 5.32,5.504 12.69,8.914 20.95,8.914 7.97,0 14.01,-1.508 19.14,-4.816 l 0.02,0.019 c 2.3,-1.488 4.32,-3.281 6.14,-5.41 1.79,1.953 3.67,3.637 5.71,5.051 4.99,3.437 10.59,5.156 17.37,5.156 13.1,0 22.18,-3.68 28.22,-11.328 5.69,-7.211 8.05,-17.465 8.05,-31.125 z m 105.52,17.953 c -0.13,-15.812 -2.54,-32.7339 -9.1,-45.8472 -5.72,-11.4492 -14.48,-20.0703 -27.41,-23.0117 l -7.8,-1.7773 -0.78,8.0078 -1.19,12.2109 -0.75,7.75 h 7.78 c 1.93,0 4.2,3.2148 6.39,9.1875 2.78,7.609 4.51,18.73 4.51,32.914 v 37.961 c 0,13.137 -1.2,23.387 -4.64,29.953 -2.78,5.289 -7.56,8.156 -15.25,8.156 -8.72,0 -13.93,-2.976 -16.84,-8.414 -3.56,-6.644 -4.65,-17.054 -4.65,-30.293 v -37.363 c 0,-14.621 1.28,-26.211 3.59,-34.0195 1.55,-5.2148 2.91,-8.082 3.91,-8.082 h 7.18 l -0.12,-7.1953 -0.22,-12.2109 -0.14,-8.4141 -8.24,1.5742 c -15.03,2.875 -23.78,13.6602 -28.7,27.5039 -4.45,12.5156 -5.64,27.5117 -5.64,40.8437 v 36.977 c 0,14.441 2.01,30.254 8.83,42.777 7.34,13.445 19.77,22.875 40.24,22.875 20.74,0 33.2,-8.137 40.55,-20.883 6.86,-11.89 8.73,-27.433 8.73,-43.785 l -0.04,-0.031 z m -14.22,-4.449 c 0.05,1.508 0.09,3.012 0.1,4.508 l 0.21,37.336 h -0.03 c 0,12.359 -1.09,23.965 -4.86,32.855 3.4,-8.523 4.62,-19.589 4.62,-32.855 v -37.961 c 0,-1.316 -0.01,-2.609 -0.04,-3.883 z m -69.69,41.246 c 0,1.34 0.01,2.661 0.04,3.957 -0.05,-1.457 -0.07,-2.906 -0.07,-4.343 v -36.977 c 0,-2.723 0.05,-5.512 0.18,-8.324 -0.1,2.676 -0.15,5.449 -0.15,8.324 v 37.363"
         style="fill:#003399;fill-opacity:1;fill-rule:nonzero;stroke:none"
         id="path24"
         inkscape:connector-curvature="0" /></g></g></svg>